#N canvas 606 31 769 617 10;
#X declare -lib mrpeach;
#X obj 25 60 cnv 15 100 70 empty empty Visuals!!! 5 12 0 14 -195568
-66577 0;
#N canvas 0 22 454 304 gemwin 0;
#X obj 132 136 gemwin;
#X obj 67 89 outlet;
#X obj 67 10 inlet;
#X obj 67 41 route create;
#X msg 67 70 set destroy;
#X msg 182 68 set create;
#X msg 132 112 create \, 1;
#X msg 238 112 destroy;
#N canvas 87 154 247 160 Gem.init 0;
#X obj 59 46 loadbang;
#X msg 118 81 reset;
#X obj 118 113 outlet;
#X obj 59 65 t b b;
#X connect 0 0 3 0;
#X connect 1 0 2 0;
#X connect 3 1 1 0;
#X restore 289 80 pd Gem.init;
#X connect 2 0 3 0;
#X connect 3 0 4 0;
#X connect 3 0 6 0;
#X connect 3 1 5 0;
#X connect 3 1 7 0;
#X connect 4 0 1 0;
#X connect 5 0 1 0;
#X connect 6 0 0 0;
#X connect 7 0 0 0;
#X connect 8 0 0 0;
#X restore 30 104 pd gemwin;
#X msg 30 80 destroy;
#X obj 135 59 cnv 15 200 100 empty empty Incoming_Leap_Data 20 12 0
14 -233017 -66577 0;
#X floatatom 213 121 5 0 0 3 Fingers - -;
#X floatatom 252 123 5 0 0 2 X - -;
#X floatatom 287 123 5 0 0 2 Y - -;
#X obj 191 123 bng 15 250 50 0 empty empty select -40 7 0 10 -4034
-1 -1;
#N canvas 796 0 450 670 backend 0;
#X obj 98 94 udpreceive 7110;
#X obj 98 70 import mrpeach;
#X obj 98 116 unpackOSC;
#X obj 98 137 routeOSC /hand0;
#X obj 98 157 unpack s f f f f f;
#X obj 98 50 loadbang;
#X obj 96 191 outlet fingers;
#X obj 188 193 outlet x;
#X obj 247 194 outlet y;
#X obj 217 215 s x1;
#X obj 293 214 s y1;
#X obj 48 210 change;
#X obj 48 230 sel 5;
#X obj 48 253 s select1;
#X obj 0 276 outlet select1;
#X connect 0 0 2 0;
#X connect 2 0 3 0;
#X connect 3 0 4 0;
#X connect 4 2 6 0;
#X connect 4 2 11 0;
#X connect 4 3 7 0;
#X connect 4 3 9 0;
#X connect 4 5 8 0;
#X connect 4 5 10 0;
#X connect 5 0 1 0;
#X connect 11 0 12 0;
#X connect 12 0 13 0;
#X connect 12 0 14 0;
#X restore 191 86 pd backend;
#X obj 344 61 cnv 15 130 60 empty empty Grid_objects 5 12 0 14 -233017
-66577 0;
#N canvas 520 11 450 300 grid2x2 0;
#X obj 30 32 loadbang;
#X msg 30 64 -10;
#X msg 58 65 10;
#X msg 87 65 10;
#X obj 33 121 loadbang;
#X msg 33 153 -10;
#X msg 90 154 10;
#X obj 125 31 loadbang;
#X msg 182 64 10;
#X msg 153 64 10;
#X obj 127 119 loadbang;
#X msg 184 152 10;
#N canvas 238 308 450 300 squareA 0;
#X obj 82 90 inlet;
#X obj 133 93 inlet;
#X obj 188 91 inlet;
#X obj 27 93 gemhead;
#X obj 28 233 square;
#X obj 28 175 translateXYZ;
#X floatatom 34 128 5 0 0 2 x - -;
#X floatatom 69 128 5 0 0 2 y - -;
#X floatatom 106 127 5 0 0 2 z - -;
#X obj 34 150 / 10;
#X obj 69 149 / 10;
#X obj 106 149 / 10;
#X obj 205 241 text3d;
#X msg 205 209 text A;
#X msg 256 210 10;
#X obj 205 159 loadbang;
#N canvas 749 139 450 300 statechanger 0;
#X obj 146 126 loadbang;
#X msg 299 168 draw fill;
#X msg 369 170 0 1 2;
#X msg 243 156 1 1 1;
#X obj 275 64 sel 0;
#X msg 146 155 draw line \; width 10 \;;
#X obj 216 123 t b b;
#X obj 299 115 t b b;
#X obj 275 29 inlet;
#X obj 146 237 outlet;
#X obj 306 236 outlet;
#X connect 0 0 5 0;
#X connect 1 0 9 0;
#X connect 2 0 10 0;
#X connect 3 0 10 0;
#X connect 4 0 6 0;
#X connect 4 1 7 0;
#X connect 5 0 9 0;
#X connect 6 0 5 0;
#X connect 6 1 3 0;
#X connect 7 0 1 0;
#X connect 7 1 2 0;
#X connect 8 0 4 0;
#X restore 255 106 pd statechanger;
#X obj 314 193 color;
#X obj 255 82 r Astate;
#X msg 108 217 1.2;
#X connect 0 0 6 0;
#X connect 1 0 7 0;
#X connect 2 0 8 0;
#X connect 3 0 5 0;
#X connect 5 0 4 0;
#X connect 5 0 17 0;
#X connect 6 0 9 0;
#X connect 7 0 10 0;
#X connect 8 0 11 0;
#X connect 9 0 5 1;
#X connect 10 0 5 2;
#X connect 11 0 5 3;
#X connect 13 0 12 0;
#X connect 14 0 12 1;
#X connect 15 0 14 0;
#X connect 15 0 13 0;
#X connect 15 0 19 0;
#X connect 16 0 4 0;
#X connect 16 1 17 1;
#X connect 17 0 12 0;
#X connect 18 0 16 0;
#X connect 19 0 4 1;
#X restore 30 92 pd squareA;
#N canvas 525 382 450 300 squareB 0;
#X obj 82 90 inlet;
#X obj 133 93 inlet;
#X obj 188 91 inlet;
#X obj 27 93 gemhead;
#X obj 28 233 square;
#X obj 28 175 translateXYZ;
#X floatatom 34 128 5 0 0 2 x - -;
#X floatatom 69 128 5 0 0 2 y - -;
#X floatatom 106 127 5 0 0 2 z - -;
#X obj 34 150 / 10;
#X obj 69 149 / 10;
#X obj 106 149 / 10;
#X obj 215 251 text3d;
#X msg 265 219 10;
#X obj 215 184 loadbang;
#X msg 215 219 text B;
#N canvas 749 139 450 300 statechanger 0;
#X obj 146 126 loadbang;
#X msg 299 168 draw fill;
#X msg 369 170 0 1 2;
#X msg 243 156 1 1 1;
#X obj 275 64 sel 0;
#X msg 146 155 draw line \; width 10 \;;
#X obj 216 123 t b b;
#X obj 299 115 t b b;
#X obj 275 29 inlet;
#X obj 146 237 outlet;
#X obj 306 236 outlet;
#X connect 0 0 5 0;
#X connect 1 0 9 0;
#X connect 2 0 10 0;
#X connect 3 0 10 0;
#X connect 4 0 6 0;
#X connect 4 1 7 0;
#X connect 5 0 9 0;
#X connect 6 0 5 0;
#X connect 6 1 3 0;
#X connect 7 0 1 0;
#X connect 7 1 2 0;
#X connect 8 0 4 0;
#X restore 254 86 pd statechanger;
#X obj 314 126 color;
#X obj 254 57 r Bstate;
#X msg 89 209 1.2;
#X connect 0 0 6 0;
#X connect 1 0 7 0;
#X connect 2 0 8 0;
#X connect 3 0 5 0;
#X connect 5 0 4 0;
#X connect 5 0 17 0;
#X connect 6 0 9 0;
#X connect 7 0 10 0;
#X connect 8 0 11 0;
#X connect 9 0 5 1;
#X connect 10 0 5 2;
#X connect 11 0 5 3;
#X connect 13 0 12 1;
#X connect 14 0 13 0;
#X connect 14 0 15 0;
#X connect 14 0 19 0;
#X connect 15 0 12 0;
#X connect 16 0 4 0;
#X connect 16 1 17 1;
#X connect 17 0 12 0;
#X connect 18 0 16 0;
#X connect 19 0 4 1;
#X restore 125 91 pd squareB;
#N canvas 238 308 450 300 squareC 0;
#X obj 82 90 inlet;
#X obj 133 93 inlet;
#X obj 188 91 inlet;
#X obj 27 93 gemhead;
#X obj 28 233 square;
#X obj 28 175 translateXYZ;
#X floatatom 34 128 5 0 0 2 x - -;
#X floatatom 69 128 5 0 0 2 y - -;
#X floatatom 106 127 5 0 0 2 z - -;
#X obj 34 150 / 10;
#X obj 69 149 / 10;
#X obj 106 149 / 10;
#X obj 224 261 text3d;
#X msg 275 230 10;
#X obj 224 175 loadbang;
#X msg 224 229 text C;
#N canvas 749 139 450 300 statechanger 0;
#X obj 146 126 loadbang;
#X msg 299 168 draw fill;
#X msg 369 170 0 1 2;
#X msg 243 156 1 1 1;
#X obj 275 64 sel 0;
#X msg 146 155 draw line \; width 10 \;;
#X obj 216 123 t b b;
#X obj 299 115 t b b;
#X obj 275 29 inlet;
#X obj 146 237 outlet;
#X obj 306 236 outlet;
#X connect 0 0 5 0;
#X connect 1 0 9 0;
#X connect 2 0 10 0;
#X connect 3 0 10 0;
#X connect 4 0 6 0;
#X connect 4 1 7 0;
#X connect 5 0 9 0;
#X connect 6 0 5 0;
#X connect 6 1 3 0;
#X connect 7 0 1 0;
#X connect 7 1 2 0;
#X connect 8 0 4 0;
#X restore 308 97 pd statechanger;
#X obj 320 212 color;
#X obj 308 68 r Cstate;
#X msg 114 211 1.2;
#X connect 0 0 6 0;
#X connect 1 0 7 0;
#X connect 2 0 8 0;
#X connect 3 0 5 0;
#X connect 5 0 4 0;
#X connect 5 0 17 0;
#X connect 6 0 9 0;
#X connect 7 0 10 0;
#X connect 8 0 11 0;
#X connect 9 0 5 1;
#X connect 10 0 5 2;
#X connect 11 0 5 3;
#X connect 13 0 12 1;
#X connect 14 0 13 0;
#X connect 14 0 15 0;
#X connect 14 0 19 0;
#X connect 15 0 12 0;
#X connect 16 0 4 0;
#X connect 16 1 17 1;
#X connect 17 0 12 0;
#X connect 18 0 16 0;
#X connect 19 0 4 1;
#X restore 33 181 pd squareC;
#N canvas 238 308 450 300 squareD 0;
#X obj 82 90 inlet;
#X obj 133 93 inlet;
#X obj 188 91 inlet;
#X obj 27 93 gemhead;
#X obj 28 233 square;
#X obj 28 175 translateXYZ;
#X floatatom 34 128 5 0 0 2 x - -;
#X floatatom 69 128 5 0 0 2 y - -;
#X floatatom 106 127 5 0 0 2 z - -;
#X obj 34 150 / 10;
#X obj 69 149 / 10;
#X obj 106 149 / 10;
#X obj 235 271 text3d;
#X msg 286 240 10;
#X obj 235 194 loadbang;
#X msg 235 239 text D;
#N canvas 749 139 450 300 statechanger 0;
#X obj 146 126 loadbang;
#X msg 299 168 draw fill;
#X msg 369 170 0 1 2;
#X msg 243 156 1 1 1;
#X obj 275 64 sel 0;
#X msg 146 155 draw line \; width 10 \;;
#X obj 216 123 t b b;
#X obj 299 115 t b b;
#X obj 275 29 inlet;
#X obj 146 237 outlet;
#X obj 306 236 outlet;
#X connect 0 0 5 0;
#X connect 1 0 9 0;
#X connect 2 0 10 0;
#X connect 3 0 10 0;
#X connect 4 0 6 0;
#X connect 4 1 7 0;
#X connect 5 0 9 0;
#X connect 6 0 5 0;
#X connect 6 1 3 0;
#X connect 7 0 1 0;
#X connect 7 1 2 0;
#X connect 8 0 4 0;
#X restore 330 104 pd statechanger;
#X obj 342 219 color;
#X obj 330 75 r Dstate;
#X msg 103 218 1.2;
#X connect 0 0 6 0;
#X connect 1 0 7 0;
#X connect 2 0 8 0;
#X connect 3 0 5 0;
#X connect 5 0 4 0;
#X connect 5 0 17 0;
#X connect 6 0 9 0;
#X connect 7 0 10 0;
#X connect 8 0 11 0;
#X connect 9 0 5 1;
#X connect 10 0 5 2;
#X connect 11 0 5 3;
#X connect 13 0 12 1;
#X connect 14 0 13 0;
#X connect 14 0 15 0;
#X connect 14 0 19 0;
#X connect 15 0 12 0;
#X connect 16 0 4 0;
#X connect 16 1 17 1;
#X connect 17 0 12 0;
#X connect 18 0 16 0;
#X connect 19 0 4 1;
#X restore 127 179 pd squareD;
#X msg 125 63 14;
#X msg 61 154 -14;
#X msg 155 152 -14;
#X msg 127 151 14;
#X connect 0 0 1 0;
#X connect 0 0 2 0;
#X connect 0 0 3 0;
#X connect 1 0 12 0;
#X connect 2 0 12 1;
#X connect 3 0 12 2;
#X connect 4 0 5 0;
#X connect 4 0 17 0;
#X connect 4 0 6 0;
#X connect 5 0 14 0;
#X connect 6 0 14 2;
#X connect 7 0 16 0;
#X connect 7 0 9 0;
#X connect 7 0 8 0;
#X connect 8 0 13 2;
#X connect 9 0 13 1;
#X connect 10 0 19 0;
#X connect 10 0 18 0;
#X connect 10 0 11 0;
#X connect 11 0 15 2;
#X connect 16 0 13 0;
#X connect 17 0 14 1;
#X connect 18 0 15 1;
#X connect 19 0 15 0;
#X restore 360 83 pd grid2x2;
#N canvas 219 236 450 326 cute_title 0;
#X obj 154 66 gemhead;
#X floatatom 160 104 5 0 0 2 x - -;
#X floatatom 195 104 5 0 0 2 y - -;
#X floatatom 232 103 5 0 0 2 z - -;
#X obj 154 158 translateXYZ;
#X floatatom 270 104 5 0 0 2 size - -;
#X msg 161 180 font vera.ttf;
#X msg 251 180 text;
#X obj 270 124 / 10;
#X obj 160 126 / 10;
#X obj 195 125 / 10;
#X obj 232 125 / 10;
#X obj 240 40 loadbang;
#X msg 240 61 39;
#X msg 271 61 -4;
#X obj 154 202 text3d Hi \, Stephanie!;
#X msg 303 58 60;
#X connect 0 0 4 0;
#X connect 1 0 9 0;
#X connect 2 0 10 0;
#X connect 3 0 11 0;
#X connect 4 0 15 0;
#X connect 5 0 8 0;
#X connect 6 0 15 0;
#X connect 7 0 15 0;
#X connect 8 0 15 1;
#X connect 9 0 4 1;
#X connect 10 0 4 2;
#X connect 11 0 4 3;
#X connect 12 0 13 0;
#X connect 12 0 14 0;
#X connect 12 0 16 0;
#X connect 13 0 2 0;
#X connect 14 0 3 0;
#X connect 16 0 5 0;
#X restore 354 102 pd cute_title;
#X obj 344 127 cnv 15 130 60 empty empty Hand_Math 20 12 0 14 -233017
-66577 0;
#N canvas 586 217 450 417 handpos 0;
#X obj 21 19 gemhead;
#X obj 22 235 square;
#X obj 22 162 translateXYZ;
#X floatatom 45 116 5 0 0 2 x - -;
#X floatatom 80 116 5 0 0 2 y - -;
#X obj 45 138 / 10;
#X obj 80 137 / 10;
#X obj 115 191 loadbang;
#X obj 22 193 color 0 1 2;
#X msg 132 133 1.1;
#X msg 115 215 0.2;
#X obj 132 111 loadbang;
#X obj 76 40 - 0.5;
#X obj 76 61 * 100;
#X obj 127 42 * 100;
#X obj 76 8 r x1;
#X obj 127 9 r y1;
#X connect 0 0 2 0;
#X connect 2 0 8 0;
#X connect 3 0 5 0;
#X connect 4 0 6 0;
#X connect 5 0 2 1;
#X connect 6 0 2 2;
#X connect 7 0 10 0;
#X connect 8 0 1 0;
#X connect 9 0 2 3;
#X connect 10 0 1 1;
#X connect 11 0 9 0;
#X connect 12 0 13 0;
#X connect 13 0 3 0;
#X connect 14 0 4 0;
#X connect 15 0 12 0;
#X connect 16 0 14 0;
#X restore 347 147 pd handpos;
#N canvas 212 159 920 642 zone_figure-outer 0;
#X floatatom 55 176 5 0 0 0 - - -;
#X floatatom 108 175 5 0 0 0 - - -;
#X obj 55 195 s x;
#X obj 108 197 s y;
#X obj 215 31 r x;
#X obj 258 31 r y;
#X obj 211 51 cnv 15 80 120 empty empty A 50 65 0 20 -233017 -66577
0;
#X obj 215 108 &&;
#X obj 258 58 == 0;
#X obj 233 83 t b f;
#X msg 215 135 \; Astate \$1;
#X obj 312 50 cnv 15 80 120 empty empty B 50 65 0 20 -233017 -66577
0;
#X obj 316 108 &&;
#X obj 359 58 == 0;
#X obj 334 83 t b f;
#X obj 316 30 r x;
#X obj 359 30 r y;
#X obj 409 48 cnv 15 80 120 empty empty C 50 65 0 20 -233017 -66577
0;
#X obj 413 106 &&;
#X obj 431 81 t b f;
#X obj 413 28 r x;
#X obj 456 28 r y;
#X msg 316 136 \; Bstate \$1;
#X msg 413 135 \; Cstate \$1;
#X obj 503 44 cnv 15 80 120 empty empty D 50 65 0 20 -233017 -66577
0;
#X obj 507 102 &&;
#X obj 525 77 t b f;
#X obj 507 24 r x;
#X obj 550 24 r y;
#X msg 507 131 \; Dstate \$1;
#X obj 316 57 == 0;
#X obj 215 57 == -1;
#X obj 108 132 - 0;
#X obj 55 133 - 4;
#X obj 55 155 div 32;
#X obj 413 55 == -1;
#X obj 507 51 == 0;
#X obj 108 154 div 32;
#X obj 456 56 == -1;
#X obj 550 52 == -1;
#X obj 55 87 - 0.5;
#X obj 55 108 * 100;
#X obj 108 88 * 100;
#X obj 55 39 r x1;
#X obj 108 39 r y1;
#X connect 0 0 2 0;
#X connect 1 0 3 0;
#X connect 4 0 31 0;
#X connect 5 0 8 0;
#X connect 7 0 10 0;
#X connect 7 0 10 0;
#X connect 8 0 9 0;
#X connect 9 0 7 0;
#X connect 9 1 7 1;
#X connect 12 0 22 0;
#X connect 12 0 22 0;
#X connect 13 0 14 0;
#X connect 14 0 12 0;
#X connect 14 1 12 1;
#X connect 15 0 30 0;
#X connect 16 0 13 0;
#X connect 18 0 23 0;
#X connect 18 0 23 0;
#X connect 19 0 18 0;
#X connect 19 1 18 1;
#X connect 20 0 35 0;
#X connect 21 0 38 0;
#X connect 25 0 29 0;
#X connect 25 0 29 0;
#X connect 26 0 25 0;
#X connect 26 1 25 1;
#X connect 27 0 36 0;
#X connect 28 0 39 0;
#X connect 30 0 12 0;
#X connect 31 0 7 0;
#X connect 32 0 37 0;
#X connect 33 0 34 0;
#X connect 34 0 0 0;
#X connect 35 0 18 0;
#X connect 36 0 25 0;
#X connect 37 0 1 0;
#X connect 38 0 19 0;
#X connect 39 0 26 0;
#X connect 40 0 41 0;
#X connect 41 0 33 0;
#X connect 42 0 32 0;
#X connect 43 0 40 0;
#X connect 44 0 42 0;
#X restore 347 167 pd zone_figure-outer;
#X obj 346 194 cnv 15 130 120 empty empty Sound_Stuff 5 12 0 14 -233017
-66577 0;
#N canvas 158 298 323 208 tracklist 0;
#X obj 8 180 s trackplay;
#X msg 8 82 A.aiff;
#X msg 65 82 B.aiff;
#X msg 121 82 C.aiff;
#X msg 177 82 D.aiff;
#X obj 8 10 r Astate;
#X obj 8 56 sel 1;
#X obj 8 32 change;
#X obj 65 56 sel 1;
#X obj 65 32 change;
#X obj 65 10 r Bstate;
#X obj 121 56 sel 1;
#X obj 121 32 change;
#X obj 121 10 r Cstate;
#X obj 177 56 sel 1;
#X obj 177 32 change;
#X obj 177 10 r Dstate;
#X connect 1 0 0 0;
#X connect 2 0 0 0;
#X connect 3 0 0 0;
#X connect 4 0 0 0;
#X connect 5 0 7 0;
#X connect 6 0 1 0;
#X connect 7 0 6 0;
#X connect 8 0 2 0;
#X connect 9 0 8 0;
#X connect 10 0 9 0;
#X connect 11 0 3 0;
#X connect 12 0 11 0;
#X connect 13 0 12 0;
#X connect 14 0 4 0;
#X connect 15 0 14 0;
#X connect 16 0 15 0;
#X restore 351 223 pd tracklist;
#X obj 352 270 output~;
#X obj 136 164 cnv 15 200 150 empty empty Reaction_Time_Logger 5 12
0 14 -233017 -66577 0;
#X obj 229 221 bng 15 250 50 0 empty empty Clear_log 20 7 0 10 -262144
-1 -1;
#N canvas 74 60 646 616 RT_logger 0;
#X obj 346 60 inlet write;
#X obj 226 487 outlet RT;
#X obj 326 490 outlet Last_zone;
#X obj 32 498 outlet count;
#X obj 44 60 inlet start;
#X obj 237 60 inlet clear_log;
#X obj 123 60 inlet reset_count;
#X obj 116 277 timer;
#X obj 116 175 bng 30 250 50 0 empty empty empty 17 7 0 10 -258113
-1 -1;
#X obj 157 274 l2s;
#X obj 116 322 l2s;
#X msg 116 351 add \$1;
#X obj 116 382 textfile;
#X msg 392 171 rewind;
#X msg 325 218 bang;
#X msg 360 195 clear;
#X obj 32 301 counter;
#X obj 116 420 print;
#X obj 62 274 bng 15 250 50 0 empty empty Reset 0 -7 0 10 -262144 -1
-1;
#X obj 143 230 r select1;
#X obj 143 254 bng 15 250 50 0 empty empty empty 17 7 0 10 -4034 -1
-1;
#X obj 161 254 r trackplay;
#X symbolatom 265 399 10 0 0 1 Last_Zone - -;
#X floatatom 226 399 5 0 0 0 RT - -;
#X msg 265 368 set \$1;
#X obj 116 299 pack f s s;
#X obj 259 227 r target;
#X obj 443 493 outlet target;
#X msg 430 397 set \$1;
#X obj 520 79 inlet start;
#X obj 520 127 random 3;
#X obj 520 150 route 0 1 2 3;
#X msg 520 180 A.aiff;
#X msg 539 204 B.aiff;
#X msg 557 232 C.aiff;
#X msg 577 255 D.aiff;
#X obj 520 302 s target;
#X obj 520 275 l2s;
#X obj 520 104 metro 10000;
#X connect 0 0 12 0;
#X connect 4 0 8 0;
#X connect 5 0 15 0;
#X connect 6 0 18 0;
#X connect 7 0 23 0;
#X connect 7 0 25 0;
#X connect 8 0 7 0;
#X connect 8 0 16 0;
#X connect 9 0 24 0;
#X connect 9 0 25 1;
#X connect 10 0 11 0;
#X connect 11 0 12 0;
#X connect 12 0 17 0;
#X connect 13 0 12 0;
#X connect 14 0 12 0;
#X connect 15 0 12 0;
#X connect 16 0 11 0;
#X connect 16 0 3 0;
#X connect 18 0 16 2;
#X connect 19 0 20 0;
#X connect 20 0 7 1;
#X connect 21 0 9 0;
#X connect 23 0 1 0;
#X connect 24 0 22 0;
#X connect 24 0 2 0;
#X connect 25 0 10 0;
#X connect 26 0 25 2;
#X connect 26 0 28 0;
#X connect 28 0 27 0;
#X connect 29 0 38 0;
#X connect 30 0 31 0;
#X connect 31 0 32 0;
#X connect 31 1 33 0;
#X connect 31 2 34 0;
#X connect 31 3 35 0;
#X connect 32 0 37 0;
#X connect 33 0 37 0;
#X connect 34 0 37 0;
#X connect 35 0 37 0;
#X connect 37 0 36 0;
#X connect 38 0 30 0;
#X restore 147 258 pd RT_logger;
#X obj 147 236 bng 15 250 50 0 empty target Trial -5 -7 0 10 -258113
-1 -1;
#X symbolatom 209 284 10 0 0 3 Last_Zone - -;
#X floatatom 175 284 5 0 0 3 RT - -;
#X floatatom 137 284 5 0 0 3 trial - -;
#X obj 229 201 bng 15 250 50 0 empty empty Reset_counter 20 7 0 10
-262144 -1 -1;
#X text 232 254 Exports .txt;
#X obj 26 140 cnv 15 100 100 empty empty Test_input 5 12 0 14 -233017
-66577 0;
#X obj 45 207 s x1;
#X obj 81 206 s y1;
#X obj 48 165 hsl 25 15 0.1 0.9 0 0 empty empty empty -2 -8 0 10 -262144
-1 -1 0 1;
#X obj 81 168 vsl 15 25 -0.3 0.3 0 0 empty empty empty 0 -9 0 10 -262144
-1 -1 0 1;
#X obj 56 186 bng 15 250 50 0 select1 empty empty 17 7 0 10 -4034 -1
-1;
#X symbolatom 273 284 10 0 0 3 target - -;
#X obj 172 204 tgl 50 0 empty empty Start!!! 5 -5 0 10 -258113 -1 -1
0 1;
#X msg 230 239 write test5.txt;
#X text 21 264 1) Clear log;
#X text 21 276 2) Reset counter;
#X text 21 290 3) Turn on sound;
#X text 21 302 4) open visuals;
#X text 22 313 5) Start toggle;
#X text 22 323 6) do experiment;
#X text 23 334 7) Turn off start;
#X text 24 346 8) change filename;
#X text 24 358 9) click write *.txt msg box to save data as txt.;
#X text 20 370 10) profit;
#X obj 25 -3 cnv 15 448 60 empty empty 2x2_Grid 90 27 0 50 -233017
-66577 0;
#N canvas 142 137 946 388 sound_stuff 0;
#X obj 365 162 readsf~;
#X msg 365 140 open \$2/\$1;
#X obj 365 112 pack s s;
#X msg 410 67 sounds;
#X obj 410 87 symbol;
#X obj 410 47 loadbang;
#X msg 316 143 start;
#N canvas 727 208 450 353 select_sound 0;
#X msg -148 75 positive.aiff;
#X msg -54 81 sounds;
#X obj -54 105 symbol;
#X obj -54 55 loadbang;
#X msg -99 152 open \$2/\$1;
#X obj -99 129 pack s s;
#X msg -148 153 start;
#X obj -148 112 t b;
#X msg -148 132 del 50;
#X obj -148 212 readsf~;
#X obj -147 245 outlet~;
#X obj -148 36 r select1;
#X msg 19 214 0;
#X obj 19 242 outlet;
#X text 65 242 Turns off sound until next trial;
#X obj 19 190 del 300;
#X connect 0 0 5 0;
#X connect 0 0 7 0;
#X connect 1 0 2 0;
#X connect 2 0 5 1;
#X connect 3 0 1 0;
#X connect 4 0 9 0;
#X connect 5 0 4 0;
#X connect 6 0 9 0;
#X connect 7 0 8 0;
#X connect 7 0 15 0;
#X connect 8 0 6 0;
#X connect 9 0 10 0;
#X connect 11 0 0 0;
#X connect 12 0 13 0;
#X connect 15 0 12 0;
#X restore 432 172 pd select_sound;
#X obj 365 195 +~;
#X obj 366 346 outlet~;
#X obj 273 -4 r target;
#X text 329 -2 target zone announcement;
#X text 458 84 adds sounds directory before audio file name directory
;
#X text 531 172 Plays the select sound;
#X text 436 139 actual file path sent to readsf~;
#N canvas 360 229 621 300 feedback_sounds 0;
#X obj 254 132 readsf~;
#X obj 205 0 r trackplay;
#X msg 254 110 open \$2/\$1;
#X obj 254 82 pack s s;
#X msg 325 39 sounds;
#X obj 325 59 symbol;
#X obj 325 19 loadbang;
#X msg 205 113 start;
#X text 288 0 Current zone feedback;
#X msg 205 92 del 20;
#X obj 205 35 t b a;
#X obj 259 269 outlet~;
#X obj 342 226 freeverb~;
#X msg 411 104 roomsize 0.1;
#X msg 443 86 wet 0.2;
#X msg 374 125 damping 0.99;
#X msg 480 64 dry 0.05;
#X obj 340 172 hip~ 2000;
#X obj 341 198 lop~ 1000;
#X obj 538 12 loadbang;
#X obj 258 242 *~ 1;
#X connect 0 0 20 0;
#X connect 1 0 10 0;
#X connect 2 0 0 0;
#X connect 3 0 2 0;
#X connect 4 0 5 0;
#X connect 5 0 3 1;
#X connect 6 0 4 0;
#X connect 7 0 0 0;
#X connect 9 0 7 0;
#X connect 10 0 9 0;
#X connect 10 1 3 0;
#X connect 13 0 12 0;
#X connect 14 0 12 0;
#X connect 15 0 12 0;
#X connect 16 0 12 0;
#X connect 17 0 18 0;
#X connect 18 0 12 0;
#X connect 19 0 15 0;
#X connect 19 0 13 0;
#X connect 19 0 14 0;
#X connect 19 0 16 0;
#X connect 20 0 11 0;
#X restore 435 197 pd feedback_sounds;
#X obj 364 221 +~;
#X text 551 193 plays the zone feedback sounds. Adds some filters and
reverb to differentiate from target zone anouncement.;
#X obj 138 186 readsf~;
#X msg 138 164 open \$2/\$1;
#X obj 138 136 pack s s;
#X msg 222 107 sounds;
#X obj 222 127 symbol;
#X obj 222 87 loadbang;
#X msg 89 167 start;
#X msg 89 146 del 20;
#X msg 138 66 Select_Option.aiff;
#X obj 365 261 +~;
#X obj 273 21 t b b b a;
#X obj 365 295 *~;
#X obj 473 234 loadbang;
#X msg 455 257 1;
#X connect 0 0 8 0;
#X connect 1 0 0 0;
#X connect 2 0 1 0;
#X connect 3 0 4 0;
#X connect 4 0 2 1;
#X connect 5 0 3 0;
#X connect 6 0 0 0;
#X connect 7 0 8 1;
#X connect 7 1 29 1;
#X connect 8 0 16 0;
#X connect 10 0 28 0;
#X connect 15 0 16 1;
#X connect 16 0 27 0;
#X connect 18 0 27 1;
#X connect 18 1 6 0;
#X connect 19 0 18 0;
#X connect 20 0 19 0;
#X connect 21 0 22 0;
#X connect 22 0 20 1;
#X connect 23 0 21 0;
#X connect 24 0 18 0;
#X connect 25 0 24 0;
#X connect 26 0 20 0;
#X connect 27 0 29 0;
#X connect 28 0 25 0;
#X connect 28 1 26 0;
#X connect 28 2 31 0;
#X connect 28 3 2 0;
#X connect 29 0 9 0;
#X connect 30 0 31 0;
#X connect 31 0 29 1;
#X restore 352 243 pd sound_stuff;
#X text 19 245 RENAME FILE FIRST;
#X connect 1 0 2 0;
#X connect 2 0 1 0;
#X connect 8 0 7 0;
#X connect 8 1 4 0;
#X connect 8 2 5 0;
#X connect 8 3 6 0;
#X connect 19 0 20 2;
#X connect 20 0 24 0;
#X connect 20 1 23 0;
#X connect 20 2 22 0;
#X connect 20 3 33 0;
#X connect 21 0 20 0;
#X connect 25 0 20 1;
#X connect 30 0 28 0;
#X connect 31 0 29 0;
#X connect 34 0 20 4;
#X connect 34 0 35 0;
#X connect 35 0 20 3;
#X connect 47 0 17 0;
#X connect 47 0 17 1;
