#N canvas 773 62 602 502 10;
#X obj 20 59 cnv 15 220 70 empty empty empty 20 12 0 14 -195568 -66577
0;
#N canvas 0 22 454 304 gemwin 0;
#X obj 132 136 gemwin;
#X obj 67 89 outlet;
#X obj 67 10 inlet;
#X obj 67 41 route create;
#X msg 67 70 set destroy;
#X msg 182 68 set create;
#X msg 132 112 create \, 1;
#X msg 238 112 destroy;
#N canvas 87 154 247 160 Gem.init 0;
#X obj 59 46 loadbang;
#X msg 118 81 reset;
#X obj 118 113 outlet;
#X obj 59 65 t b b;
#X connect 0 0 3 0;
#X connect 1 0 2 0;
#X connect 3 1 1 0;
#X restore 289 80 pd Gem.init;
#X connect 2 0 3 0;
#X connect 3 0 4 0;
#X connect 3 0 6 0;
#X connect 3 1 5 0;
#X connect 3 1 7 0;
#X connect 4 0 1 0;
#X connect 5 0 1 0;
#X connect 6 0 0 0;
#X connect 7 0 0 0;
#X connect 8 0 0 0;
#X restore 25 103 pd gemwin;
#X msg 25 79 destroy;
#X text 21 59 Create window and render;
#X obj 280 38 gemhead;
#X floatatom 286 76 5 0 0 2 x - -;
#X floatatom 321 76 5 0 0 2 y - -;
#X floatatom 358 75 5 0 0 2 z - -;
#X obj 280 130 translateXYZ;
#X floatatom 396 76 5 0 0 2 size - -;
#X msg 287 152 font vera.ttf;
#X obj 280 174 text3d Hi \, Jason;
#X msg 377 152 text;
#X obj 396 96 / 10;
#X obj 286 98 / 10;
#X obj 321 97 / 10;
#X obj 358 97 / 10;
#X obj 20 181 loadbang;
#X msg 20 213 -10;
#X msg 48 214 10;
#X msg 77 214 10;
#X floatatom 240 325 5 0 0 2 x - -;
#X floatatom 297 326 5 0 0 2 y - -;
#X floatatom 501 131 5 0 0 0 z - -;
#X obj 23 270 loadbang;
#X msg 23 302 -10;
#X msg 80 303 10;
#X msg 51 303 -10;
#X obj 115 180 loadbang;
#X msg 172 213 10;
#X msg 115 212 10;
#X msg 143 213 10;
#X obj 117 268 loadbang;
#X msg 174 301 10;
#X msg 117 300 10;
#X msg 145 301 -10;
#N canvas 238 308 450 300 squareA 0;
#X obj 82 90 inlet;
#X obj 133 93 inlet;
#X obj 188 91 inlet;
#X obj 27 93 gemhead;
#X obj 28 233 square;
#X msg 38 198 draw line \; width 10;
#X obj 28 175 translateXYZ;
#X floatatom 34 128 5 0 0 2 x - -;
#X floatatom 69 128 5 0 0 2 y - -;
#X floatatom 106 127 5 0 0 2 z - -;
#X obj 34 150 / 10;
#X obj 69 149 / 10;
#X obj 106 149 / 10;
#X obj 113 176 loadbang;
#X obj 205 241 text3d;
#X msg 205 209 text A;
#X msg 256 210 10;
#X obj 205 159 loadbang;
#X connect 0 0 7 0;
#X connect 1 0 8 0;
#X connect 2 0 9 0;
#X connect 3 0 6 0;
#X connect 5 0 4 0;
#X connect 6 0 4 0;
#X connect 6 0 14 0;
#X connect 7 0 10 0;
#X connect 8 0 11 0;
#X connect 9 0 12 0;
#X connect 10 0 6 1;
#X connect 11 0 6 2;
#X connect 12 0 6 3;
#X connect 13 0 5 0;
#X connect 15 0 14 0;
#X connect 16 0 14 1;
#X connect 17 0 16 0;
#X connect 17 0 15 0;
#X restore 20 241 pd squareA;
#N canvas 238 308 450 300 squareB 0;
#X obj 82 90 inlet;
#X obj 133 93 inlet;
#X obj 188 91 inlet;
#X obj 27 93 gemhead;
#X obj 28 233 square;
#X msg 38 198 draw line \; width 10;
#X obj 28 175 translateXYZ;
#X floatatom 34 128 5 0 0 2 x - -;
#X floatatom 69 128 5 0 0 2 y - -;
#X floatatom 106 127 5 0 0 2 z - -;
#X obj 34 150 / 10;
#X obj 69 149 / 10;
#X obj 106 149 / 10;
#X obj 113 176 loadbang;
#X obj 215 251 text3d;
#X msg 265 219 10;
#X obj 215 184 loadbang;
#X msg 215 219 text B;
#X connect 0 0 7 0;
#X connect 1 0 8 0;
#X connect 2 0 9 0;
#X connect 3 0 6 0;
#X connect 5 0 4 0;
#X connect 6 0 4 0;
#X connect 6 0 14 0;
#X connect 7 0 10 0;
#X connect 8 0 11 0;
#X connect 9 0 12 0;
#X connect 10 0 6 1;
#X connect 11 0 6 2;
#X connect 12 0 6 3;
#X connect 13 0 5 0;
#X connect 15 0 14 1;
#X connect 16 0 15 0;
#X connect 16 0 17 0;
#X connect 17 0 14 0;
#X restore 115 240 pd squareB;
#N canvas 238 308 450 300 squareC 0;
#X obj 82 90 inlet;
#X obj 133 93 inlet;
#X obj 188 91 inlet;
#X obj 27 93 gemhead;
#X obj 28 233 square;
#X msg 38 198 draw line \; width 10;
#X obj 28 175 translateXYZ;
#X floatatom 34 128 5 0 0 2 x - -;
#X floatatom 69 128 5 0 0 2 y - -;
#X floatatom 106 127 5 0 0 2 z - -;
#X obj 34 150 / 10;
#X obj 69 149 / 10;
#X obj 106 149 / 10;
#X obj 113 176 loadbang;
#X obj 224 261 text3d;
#X msg 275 230 10;
#X obj 224 175 loadbang;
#X msg 224 229 text C;
#X connect 0 0 7 0;
#X connect 1 0 8 0;
#X connect 2 0 9 0;
#X connect 3 0 6 0;
#X connect 5 0 4 0;
#X connect 6 0 4 0;
#X connect 6 0 14 0;
#X connect 7 0 10 0;
#X connect 8 0 11 0;
#X connect 9 0 12 0;
#X connect 10 0 6 1;
#X connect 11 0 6 2;
#X connect 12 0 6 3;
#X connect 13 0 5 0;
#X connect 15 0 14 1;
#X connect 16 0 15 0;
#X connect 16 0 17 0;
#X connect 17 0 14 0;
#X restore 23 330 pd squareC;
#N canvas 238 308 450 300 squareD 0;
#X obj 82 90 inlet;
#X obj 133 93 inlet;
#X obj 188 91 inlet;
#X obj 27 93 gemhead;
#X obj 28 233 square;
#X msg 38 198 draw line \; width 10;
#X obj 28 175 translateXYZ;
#X floatatom 34 128 5 0 0 2 x - -;
#X floatatom 69 128 5 0 0 2 y - -;
#X floatatom 106 127 5 0 0 2 z - -;
#X obj 34 150 / 10;
#X obj 69 149 / 10;
#X obj 106 149 / 10;
#X obj 113 176 loadbang;
#X obj 235 271 text3d;
#X msg 286 240 10;
#X obj 235 194 loadbang;
#X msg 235 239 text D;
#X connect 0 0 7 0;
#X connect 1 0 8 0;
#X connect 2 0 9 0;
#X connect 3 0 6 0;
#X connect 5 0 4 0;
#X connect 6 0 4 0;
#X connect 6 0 14 0;
#X connect 7 0 10 0;
#X connect 8 0 11 0;
#X connect 9 0 12 0;
#X connect 10 0 6 1;
#X connect 11 0 6 2;
#X connect 12 0 6 3;
#X connect 13 0 5 0;
#X connect 15 0 14 1;
#X connect 16 0 15 0;
#X connect 16 0 17 0;
#X connect 17 0 14 0;
#X restore 117 328 pd squareD;
#X obj 366 12 loadbang;
#X msg 366 33 39;
#X msg 397 33 -4;
#N canvas 821 236 450 300 handpos 0;
#X obj 92 100 inlet;
#X obj 143 103 inlet;
#X obj 37 103 gemhead;
#X obj 38 258 square;
#X obj 38 185 translateXYZ;
#X floatatom 44 138 5 0 0 2 x - -;
#X floatatom 79 138 5 0 0 2 y - -;
#X obj 44 160 / 10;
#X obj 79 159 / 10;
#X obj 119 138 loadbang;
#X obj 38 217 color 0 2 1;
#X msg 118 160 -15;
#X text 143 159 size;
#X connect 0 0 5 0;
#X connect 1 0 6 0;
#X connect 2 0 4 0;
#X connect 4 0 10 0;
#X connect 5 0 7 0;
#X connect 6 0 8 0;
#X connect 7 0 4 1;
#X connect 8 0 4 2;
#X connect 9 0 11 0;
#X connect 10 0 3 0;
#X connect 11 0 4 3;
#X restore 240 358 pd handpos;
#X connect 1 0 2 0;
#X connect 2 0 1 0;
#X connect 4 0 8 0;
#X connect 5 0 14 0;
#X connect 6 0 15 0;
#X connect 7 0 16 0;
#X connect 8 0 11 0;
#X connect 9 0 13 0;
#X connect 10 0 11 0;
#X connect 12 0 11 0;
#X connect 13 0 11 1;
#X connect 14 0 8 1;
#X connect 15 0 8 2;
#X connect 16 0 8 3;
#X connect 17 0 18 0;
#X connect 17 0 19 0;
#X connect 17 0 20 0;
#X connect 18 0 36 0;
#X connect 19 0 36 1;
#X connect 20 0 36 2;
#X connect 21 0 43 0;
#X connect 22 0 43 1;
#X connect 24 0 25 0;
#X connect 24 0 27 0;
#X connect 24 0 26 0;
#X connect 25 0 38 0;
#X connect 26 0 38 2;
#X connect 27 0 38 1;
#X connect 28 0 30 0;
#X connect 28 0 31 0;
#X connect 28 0 29 0;
#X connect 29 0 37 2;
#X connect 30 0 37 0;
#X connect 31 0 37 1;
#X connect 32 0 34 0;
#X connect 32 0 35 0;
#X connect 32 0 33 0;
#X connect 33 0 39 2;
#X connect 34 0 39 0;
#X connect 35 0 39 1;
#X connect 40 0 41 0;
#X connect 40 0 42 0;
#X connect 41 0 6 0;
#X connect 42 0 7 0;
