#N canvas 34 26 729 617 10;
#X declare -lib mrpeach;
#X obj 20 59 cnv 15 220 70 empty empty empty 20 12 0 14 -195568 -66577
0;
#N canvas 0 22 454 304 gemwin 0;
#X obj 132 136 gemwin;
#X obj 67 89 outlet;
#X obj 67 10 inlet;
#X obj 67 41 route create;
#X msg 67 70 set destroy;
#X msg 182 68 set create;
#X msg 132 112 create \, 1;
#X msg 238 112 destroy;
#N canvas 87 154 247 160 Gem.init 0;
#X obj 59 46 loadbang;
#X msg 118 81 reset;
#X obj 118 113 outlet;
#X obj 59 65 t b b;
#X connect 0 0 3 0;
#X connect 1 0 2 0;
#X connect 3 1 1 0;
#X restore 289 80 pd Gem.init;
#X connect 2 0 3 0;
#X connect 3 0 4 0;
#X connect 3 0 6 0;
#X connect 3 1 5 0;
#X connect 3 1 7 0;
#X connect 4 0 1 0;
#X connect 5 0 1 0;
#X connect 6 0 0 0;
#X connect 7 0 0 0;
#X connect 8 0 0 0;
#X restore 25 103 pd gemwin;
#X msg 25 79 destroy;
#X text 21 59 Create window and render;
#N canvas 157 31 1146 670 tracklist 1;
#X obj 55 471 s trackplay;
#X msg 55 373 A.aiff;
#X msg 112 373 B.aiff;
#X msg 168 373 C.aiff;
#X msg 224 373 D.aiff;
#X obj 55 301 r Astate;
#X obj 55 347 sel 1;
#X obj 55 323 change;
#X obj 112 347 sel 1;
#X obj 112 323 change;
#X obj 112 301 r Bstate;
#X obj 168 347 sel 1;
#X obj 168 323 change;
#X obj 168 301 r Cstate;
#X obj 224 347 sel 1;
#X obj 224 323 change;
#X obj 224 301 r Dstate;
#X connect 1 0 0 0;
#X connect 2 0 0 0;
#X connect 3 0 0 0;
#X connect 4 0 0 0;
#X connect 5 0 7 0;
#X connect 6 0 1 0;
#X connect 7 0 6 0;
#X connect 8 0 2 0;
#X connect 9 0 8 0;
#X connect 10 0 9 0;
#X connect 11 0 3 0;
#X connect 12 0 11 0;
#X connect 13 0 12 0;
#X connect 14 0 4 0;
#X connect 15 0 14 0;
#X connect 16 0 15 0;
#X restore 158 111 pd tracklist;
#X obj 61 296 readsf~;
#X obj 61 163 r trackplay;
#X obj 60 378 output~;
#X msg 61 274 open \$2/\$1;
#X obj 61 253 pack s s;
#X msg 67 208 sounds;
#X obj 67 228 symbol;
#X obj 67 188 loadbang;
#X msg 12 277 start;
#X obj 12 236 t b;
#X msg 12 256 del 50;
#X obj 218 427 timer;
#X obj 218 325 bng 30 250 50 0 empty empty empty 17 7 0 10 -258113
-1 -1;
#X obj 218 449 pack f s;
#X obj 263 427 l2s;
#X obj 218 472 l2s;
#X msg 218 510 add \$1;
#X obj 218 532 textfile;
#X msg 299 461 rewind;
#X msg 300 481 bang;
#X msg 300 503 clear;
#X obj 159 475 counter;
#X obj 218 570 print;
#X obj 178 451 bng 15 250 50 0 empty empty Reset 0 -7 0 10 -262144
-1 -1;
#N canvas 826 315 450 353 select_sound 0;
#X msg -148 75 positive.aiff;
#X msg -54 81 sounds;
#X obj -54 105 symbol;
#X obj -54 55 loadbang;
#X msg -99 152 open \$2/\$1;
#X obj -99 129 pack s s;
#X msg -148 153 start;
#X obj -148 112 t b;
#X msg -148 132 del 50;
#X obj -148 212 readsf~;
#X obj -147 245 outlet~;
#X obj -148 36 r select1;
#X connect 0 0 5 0;
#X connect 0 0 7 0;
#X connect 1 0 2 0;
#X connect 2 0 5 1;
#X connect 3 0 1 0;
#X connect 4 0 9 0;
#X connect 5 0 4 0;
#X connect 6 0 9 0;
#X connect 7 0 8 0;
#X connect 8 0 6 0;
#X connect 9 0 10 0;
#X connect 11 0 0 0;
#X restore 116 297 pd select_sound;
#X obj 61 329 +~;
#X msg 372 413 write p1.txt;
#X obj 245 380 r select1;
#X obj 245 404 bng 15 250 50 0 empty empty empty 17 7 0 10 -4034 -1
-1;
#X obj 516 81 cnv 15 200 100 empty empty Incoming_Leap_Data 20 12 0
14 -233017 -66577 0;
#X floatatom 594 143 5 0 0 3 Fingers - -;
#X floatatom 633 145 5 0 0 2 X - -;
#X floatatom 668 145 5 0 0 2 Y - -;
#X obj 572 145 bng 15 250 50 0 empty empty select -40 7 0 10 -4034
-1 -1;
#N canvas 796 0 450 670 backend 0;
#X obj 98 94 udpreceive 7110;
#X obj 98 70 import mrpeach;
#X obj 98 116 unpackOSC;
#X obj 98 137 routeOSC /hand0;
#X obj 98 157 unpack s f f f f f;
#X obj 98 50 loadbang;
#X obj 96 191 outlet fingers;
#X obj 188 193 outlet x;
#X obj 247 194 outlet y;
#X obj 217 215 s x1;
#X obj 293 214 s y1;
#X obj 48 210 change;
#X obj 48 230 sel 5;
#X obj 48 253 s select1;
#X obj 0 276 outlet select1;
#X connect 0 0 2 0;
#X connect 2 0 3 0;
#X connect 3 0 4 0;
#X connect 4 2 6 0;
#X connect 4 2 11 0;
#X connect 4 3 7 0;
#X connect 4 3 9 0;
#X connect 4 5 8 0;
#X connect 4 5 10 0;
#X connect 5 0 1 0;
#X connect 11 0 12 0;
#X connect 12 0 13 0;
#X connect 12 0 14 0;
#X restore 572 108 pd backend;
#X obj 516 202 cnv 15 100 60 empty empty Grid_objects 5 12 0 14 -233017
-66577 0;
#N canvas 520 11 450 300 grid2x2 0;
#X obj 30 32 loadbang;
#X msg 30 64 -10;
#X msg 58 65 10;
#X msg 87 65 10;
#X obj 33 121 loadbang;
#X msg 33 153 -10;
#X msg 90 154 10;
#X obj 125 31 loadbang;
#X msg 182 64 10;
#X msg 153 64 10;
#X obj 127 119 loadbang;
#X msg 184 152 10;
#N canvas 238 308 450 300 squareA 0;
#X obj 82 90 inlet;
#X obj 133 93 inlet;
#X obj 188 91 inlet;
#X obj 27 93 gemhead;
#X obj 28 233 square;
#X obj 28 175 translateXYZ;
#X floatatom 34 128 5 0 0 2 x - -;
#X floatatom 69 128 5 0 0 2 y - -;
#X floatatom 106 127 5 0 0 2 z - -;
#X obj 34 150 / 10;
#X obj 69 149 / 10;
#X obj 106 149 / 10;
#X obj 205 241 text3d;
#X msg 205 209 text A;
#X msg 256 210 10;
#X obj 205 159 loadbang;
#N canvas 749 139 450 300 statechanger 0;
#X obj 146 126 loadbang;
#X msg 299 168 draw fill;
#X msg 369 170 0 1 2;
#X msg 243 156 1 1 1;
#X obj 275 64 sel 0;
#X msg 146 155 draw line \; width 10 \;;
#X obj 216 123 t b b;
#X obj 299 115 t b b;
#X obj 275 29 inlet;
#X obj 146 237 outlet;
#X obj 306 236 outlet;
#X connect 0 0 5 0;
#X connect 1 0 9 0;
#X connect 2 0 10 0;
#X connect 3 0 10 0;
#X connect 4 0 6 0;
#X connect 4 1 7 0;
#X connect 5 0 9 0;
#X connect 6 0 5 0;
#X connect 6 1 3 0;
#X connect 7 0 1 0;
#X connect 7 1 2 0;
#X connect 8 0 4 0;
#X restore 255 106 pd statechanger;
#X obj 314 193 color;
#X obj 255 82 r Astate;
#X msg 108 217 1.2;
#X connect 0 0 6 0;
#X connect 1 0 7 0;
#X connect 2 0 8 0;
#X connect 3 0 5 0;
#X connect 5 0 4 0;
#X connect 5 0 17 0;
#X connect 6 0 9 0;
#X connect 7 0 10 0;
#X connect 8 0 11 0;
#X connect 9 0 5 1;
#X connect 10 0 5 2;
#X connect 11 0 5 3;
#X connect 13 0 12 0;
#X connect 14 0 12 1;
#X connect 15 0 14 0;
#X connect 15 0 13 0;
#X connect 15 0 19 0;
#X connect 16 0 4 0;
#X connect 16 1 17 1;
#X connect 17 0 12 0;
#X connect 18 0 16 0;
#X connect 19 0 4 1;
#X restore 30 92 pd squareA;
#N canvas 525 382 450 300 squareB 0;
#X obj 82 90 inlet;
#X obj 133 93 inlet;
#X obj 188 91 inlet;
#X obj 27 93 gemhead;
#X obj 28 233 square;
#X obj 28 175 translateXYZ;
#X floatatom 34 128 5 0 0 2 x - -;
#X floatatom 69 128 5 0 0 2 y - -;
#X floatatom 106 127 5 0 0 2 z - -;
#X obj 34 150 / 10;
#X obj 69 149 / 10;
#X obj 106 149 / 10;
#X obj 215 251 text3d;
#X msg 265 219 10;
#X obj 215 184 loadbang;
#X msg 215 219 text B;
#N canvas 749 139 450 300 statechanger 0;
#X obj 146 126 loadbang;
#X msg 299 168 draw fill;
#X msg 369 170 0 1 2;
#X msg 243 156 1 1 1;
#X obj 275 64 sel 0;
#X msg 146 155 draw line \; width 10 \;;
#X obj 216 123 t b b;
#X obj 299 115 t b b;
#X obj 275 29 inlet;
#X obj 146 237 outlet;
#X obj 306 236 outlet;
#X connect 0 0 5 0;
#X connect 1 0 9 0;
#X connect 2 0 10 0;
#X connect 3 0 10 0;
#X connect 4 0 6 0;
#X connect 4 1 7 0;
#X connect 5 0 9 0;
#X connect 6 0 5 0;
#X connect 6 1 3 0;
#X connect 7 0 1 0;
#X connect 7 1 2 0;
#X connect 8 0 4 0;
#X restore 254 86 pd statechanger;
#X obj 314 126 color;
#X obj 254 57 r Bstate;
#X msg 89 209 1.2;
#X connect 0 0 6 0;
#X connect 1 0 7 0;
#X connect 2 0 8 0;
#X connect 3 0 5 0;
#X connect 5 0 4 0;
#X connect 5 0 17 0;
#X connect 6 0 9 0;
#X connect 7 0 10 0;
#X connect 8 0 11 0;
#X connect 9 0 5 1;
#X connect 10 0 5 2;
#X connect 11 0 5 3;
#X connect 13 0 12 1;
#X connect 14 0 13 0;
#X connect 14 0 15 0;
#X connect 14 0 19 0;
#X connect 15 0 12 0;
#X connect 16 0 4 0;
#X connect 16 1 17 1;
#X connect 17 0 12 0;
#X connect 18 0 16 0;
#X connect 19 0 4 1;
#X restore 125 91 pd squareB;
#N canvas 238 308 450 300 squareC 0;
#X obj 82 90 inlet;
#X obj 133 93 inlet;
#X obj 188 91 inlet;
#X obj 27 93 gemhead;
#X obj 28 233 square;
#X obj 28 175 translateXYZ;
#X floatatom 34 128 5 0 0 2 x - -;
#X floatatom 69 128 5 0 0 2 y - -;
#X floatatom 106 127 5 0 0 2 z - -;
#X obj 34 150 / 10;
#X obj 69 149 / 10;
#X obj 106 149 / 10;
#X obj 224 261 text3d;
#X msg 275 230 10;
#X obj 224 175 loadbang;
#X msg 224 229 text C;
#N canvas 749 139 450 300 statechanger 0;
#X obj 146 126 loadbang;
#X msg 299 168 draw fill;
#X msg 369 170 0 1 2;
#X msg 243 156 1 1 1;
#X obj 275 64 sel 0;
#X msg 146 155 draw line \; width 10 \;;
#X obj 216 123 t b b;
#X obj 299 115 t b b;
#X obj 275 29 inlet;
#X obj 146 237 outlet;
#X obj 306 236 outlet;
#X connect 0 0 5 0;
#X connect 1 0 9 0;
#X connect 2 0 10 0;
#X connect 3 0 10 0;
#X connect 4 0 6 0;
#X connect 4 1 7 0;
#X connect 5 0 9 0;
#X connect 6 0 5 0;
#X connect 6 1 3 0;
#X connect 7 0 1 0;
#X connect 7 1 2 0;
#X connect 8 0 4 0;
#X restore 308 97 pd statechanger;
#X obj 320 212 color;
#X obj 308 68 r Cstate;
#X msg 114 211 1.2;
#X connect 0 0 6 0;
#X connect 1 0 7 0;
#X connect 2 0 8 0;
#X connect 3 0 5 0;
#X connect 5 0 4 0;
#X connect 5 0 17 0;
#X connect 6 0 9 0;
#X connect 7 0 10 0;
#X connect 8 0 11 0;
#X connect 9 0 5 1;
#X connect 10 0 5 2;
#X connect 11 0 5 3;
#X connect 13 0 12 1;
#X connect 14 0 13 0;
#X connect 14 0 15 0;
#X connect 14 0 19 0;
#X connect 15 0 12 0;
#X connect 16 0 4 0;
#X connect 16 1 17 1;
#X connect 17 0 12 0;
#X connect 18 0 16 0;
#X connect 19 0 4 1;
#X restore 33 181 pd squareC;
#N canvas 238 308 450 300 squareD 0;
#X obj 82 90 inlet;
#X obj 133 93 inlet;
#X obj 188 91 inlet;
#X obj 27 93 gemhead;
#X obj 28 233 square;
#X obj 28 175 translateXYZ;
#X floatatom 34 128 5 0 0 2 x - -;
#X floatatom 69 128 5 0 0 2 y - -;
#X floatatom 106 127 5 0 0 2 z - -;
#X obj 34 150 / 10;
#X obj 69 149 / 10;
#X obj 106 149 / 10;
#X obj 235 271 text3d;
#X msg 286 240 10;
#X obj 235 194 loadbang;
#X msg 235 239 text D;
#N canvas 749 139 450 300 statechanger 0;
#X obj 146 126 loadbang;
#X msg 299 168 draw fill;
#X msg 369 170 0 1 2;
#X msg 243 156 1 1 1;
#X obj 275 64 sel 0;
#X msg 146 155 draw line \; width 10 \;;
#X obj 216 123 t b b;
#X obj 299 115 t b b;
#X obj 275 29 inlet;
#X obj 146 237 outlet;
#X obj 306 236 outlet;
#X connect 0 0 5 0;
#X connect 1 0 9 0;
#X connect 2 0 10 0;
#X connect 3 0 10 0;
#X connect 4 0 6 0;
#X connect 4 1 7 0;
#X connect 5 0 9 0;
#X connect 6 0 5 0;
#X connect 6 1 3 0;
#X connect 7 0 1 0;
#X connect 7 1 2 0;
#X connect 8 0 4 0;
#X restore 330 104 pd statechanger;
#X obj 342 219 color;
#X obj 330 75 r Dstate;
#X msg 103 218 1.2;
#X connect 0 0 6 0;
#X connect 1 0 7 0;
#X connect 2 0 8 0;
#X connect 3 0 5 0;
#X connect 5 0 4 0;
#X connect 5 0 17 0;
#X connect 6 0 9 0;
#X connect 7 0 10 0;
#X connect 8 0 11 0;
#X connect 9 0 5 1;
#X connect 10 0 5 2;
#X connect 11 0 5 3;
#X connect 13 0 12 1;
#X connect 14 0 13 0;
#X connect 14 0 15 0;
#X connect 14 0 19 0;
#X connect 15 0 12 0;
#X connect 16 0 4 0;
#X connect 16 1 17 1;
#X connect 17 0 12 0;
#X connect 18 0 16 0;
#X connect 19 0 4 1;
#X restore 127 179 pd squareD;
#X msg 125 63 14;
#X msg 61 154 -14;
#X msg 155 152 -14;
#X msg 127 151 14;
#X connect 0 0 1 0;
#X connect 0 0 2 0;
#X connect 0 0 3 0;
#X connect 1 0 12 0;
#X connect 2 0 12 1;
#X connect 3 0 12 2;
#X connect 4 0 5 0;
#X connect 4 0 17 0;
#X connect 4 0 6 0;
#X connect 5 0 14 0;
#X connect 6 0 14 2;
#X connect 7 0 16 0;
#X connect 7 0 9 0;
#X connect 7 0 8 0;
#X connect 8 0 13 2;
#X connect 9 0 13 1;
#X connect 10 0 19 0;
#X connect 10 0 18 0;
#X connect 10 0 11 0;
#X connect 11 0 15 2;
#X connect 16 0 13 0;
#X connect 17 0 14 1;
#X connect 18 0 15 1;
#X connect 19 0 15 0;
#X restore 532 224 pd grid2x2;
#N canvas 219 236 450 326 cute_title 0;
#X obj 154 66 gemhead;
#X floatatom 160 104 5 0 0 2 x - -;
#X floatatom 195 104 5 0 0 2 y - -;
#X floatatom 232 103 5 0 0 2 z - -;
#X obj 154 158 translateXYZ;
#X floatatom 270 104 5 0 0 2 size - -;
#X msg 161 180 font vera.ttf;
#X msg 251 180 text;
#X obj 270 124 / 10;
#X obj 160 126 / 10;
#X obj 195 125 / 10;
#X obj 232 125 / 10;
#X obj 240 40 loadbang;
#X msg 240 61 39;
#X msg 271 61 -4;
#X obj 154 202 text3d Hi \, Stephanie!;
#X msg 303 58 60;
#X connect 0 0 4 0;
#X connect 1 0 9 0;
#X connect 2 0 10 0;
#X connect 3 0 11 0;
#X connect 4 0 15 0;
#X connect 5 0 8 0;
#X connect 6 0 15 0;
#X connect 7 0 15 0;
#X connect 8 0 15 1;
#X connect 9 0 4 1;
#X connect 10 0 4 2;
#X connect 11 0 4 3;
#X connect 12 0 13 0;
#X connect 12 0 14 0;
#X connect 12 0 16 0;
#X connect 13 0 2 0;
#X connect 14 0 3 0;
#X connect 16 0 5 0;
#X restore 526 243 pd cute_title;
#X obj 517 283 cnv 15 130 60 empty empty Hand_Math 20 12 0 14 -233017
-66577 0;
#N canvas 586 217 450 417 handpos 0;
#X obj 21 19 gemhead;
#X obj 22 235 square;
#X obj 22 162 translateXYZ;
#X floatatom 45 116 5 0 0 2 x - -;
#X floatatom 80 116 5 0 0 2 y - -;
#X obj 45 138 / 10;
#X obj 80 137 / 10;
#X obj 115 191 loadbang;
#X obj 22 193 color 0 1 2;
#X msg 132 133 1.1;
#X msg 115 215 0.2;
#X obj 132 111 loadbang;
#X obj 76 40 - 0.5;
#X obj 76 61 * 100;
#X obj 127 42 * 100;
#X obj 76 8 r x1;
#X obj 127 9 r y1;
#X connect 0 0 2 0;
#X connect 2 0 8 0;
#X connect 3 0 5 0;
#X connect 4 0 6 0;
#X connect 5 0 2 1;
#X connect 6 0 2 2;
#X connect 7 0 10 0;
#X connect 8 0 1 0;
#X connect 9 0 2 3;
#X connect 10 0 1 1;
#X connect 11 0 9 0;
#X connect 12 0 13 0;
#X connect 13 0 3 0;
#X connect 14 0 4 0;
#X connect 15 0 12 0;
#X connect 16 0 14 0;
#X restore 520 303 pd handpos;
#N canvas 381 136 920 642 zone_figure-outer 0;
#X floatatom 55 176 5 0 0 0 - - -;
#X floatatom 108 175 5 0 0 0 - - -;
#X obj 55 195 s x;
#X obj 108 197 s y;
#X obj 215 31 r x;
#X obj 258 31 r y;
#X obj 211 51 cnv 15 80 120 empty empty A 50 65 0 20 -233017 -66577
0;
#X obj 215 108 &&;
#X obj 258 58 == 0;
#X obj 233 83 t b f;
#X msg 215 135 \; Astate \$1;
#X obj 312 50 cnv 15 80 120 empty empty B 50 65 0 20 -233017 -66577
0;
#X obj 316 108 &&;
#X obj 359 58 == 0;
#X obj 334 83 t b f;
#X obj 316 30 r x;
#X obj 359 30 r y;
#X obj 409 48 cnv 15 80 120 empty empty C 50 65 0 20 -233017 -66577
0;
#X obj 413 106 &&;
#X obj 431 81 t b f;
#X obj 413 28 r x;
#X obj 456 28 r y;
#X msg 316 136 \; Bstate \$1;
#X msg 413 135 \; Cstate \$1;
#X obj 503 44 cnv 15 80 120 empty empty D 50 65 0 20 -233017 -66577
0;
#X obj 507 102 &&;
#X obj 525 77 t b f;
#X obj 507 24 r x;
#X obj 550 24 r y;
#X msg 507 131 \; Dstate \$1;
#X obj 316 57 == 0;
#X obj 215 57 == -1;
#X obj 108 132 - 0;
#X obj 55 133 - 4;
#X obj 55 155 div 32;
#X obj 413 55 == -1;
#X obj 507 51 == 0;
#X obj 108 154 div 32;
#X obj 456 56 == -1;
#X obj 550 52 == -1;
#X obj 55 87 - 0.5;
#X obj 55 108 * 100;
#X obj 108 88 * 100;
#X obj 55 39 r x1;
#X obj 108 39 r y1;
#X connect 0 0 2 0;
#X connect 1 0 3 0;
#X connect 4 0 31 0;
#X connect 5 0 8 0;
#X connect 7 0 10 0;
#X connect 7 0 10 0;
#X connect 8 0 9 0;
#X connect 9 0 7 0;
#X connect 9 1 7 1;
#X connect 12 0 22 0;
#X connect 12 0 22 0;
#X connect 13 0 14 0;
#X connect 14 0 12 0;
#X connect 14 1 12 1;
#X connect 15 0 30 0;
#X connect 16 0 13 0;
#X connect 18 0 23 0;
#X connect 18 0 23 0;
#X connect 19 0 18 0;
#X connect 19 1 18 1;
#X connect 20 0 35 0;
#X connect 21 0 38 0;
#X connect 25 0 29 0;
#X connect 25 0 29 0;
#X connect 26 0 25 0;
#X connect 26 1 25 1;
#X connect 27 0 36 0;
#X connect 28 0 39 0;
#X connect 30 0 12 0;
#X connect 31 0 7 0;
#X connect 32 0 37 0;
#X connect 33 0 34 0;
#X connect 34 0 0 0;
#X connect 35 0 18 0;
#X connect 36 0 25 0;
#X connect 37 0 1 0;
#X connect 38 0 19 0;
#X connect 39 0 26 0;
#X connect 40 0 41 0;
#X connect 41 0 33 0;
#X connect 42 0 32 0;
#X connect 43 0 40 0;
#X connect 44 0 42 0;
#X restore 520 323 pd zone_figure-outer;
#N canvas 866 322 450 300 sound_stuff 1;
#X obj 75 165 readsf~;
#X obj 75 32 r trackplay;
#X msg 75 143 open \$2/\$1;
#X obj 75 122 pack s s;
#X msg 81 77 sounds;
#X obj 81 97 symbol;
#X obj 81 57 loadbang;
#X msg 26 146 start;
#X obj 26 105 t b;
#X msg 26 125 del 50;
#N canvas 826 315 450 353 select_sound 0;
#X msg -148 75 positive.aiff;
#X msg -54 81 sounds;
#X obj -54 105 symbol;
#X obj -54 55 loadbang;
#X msg -99 152 open \$2/\$1;
#X obj -99 129 pack s s;
#X msg -148 153 start;
#X obj -148 112 t b;
#X msg -148 132 del 50;
#X obj -148 212 readsf~;
#X obj -147 245 outlet~;
#X obj -148 36 r select1;
#X connect 0 0 5 0;
#X connect 0 0 7 0;
#X connect 1 0 2 0;
#X connect 2 0 5 1;
#X connect 3 0 1 0;
#X connect 4 0 9 0;
#X connect 5 0 4 0;
#X connect 6 0 9 0;
#X connect 7 0 8 0;
#X connect 8 0 6 0;
#X connect 9 0 10 0;
#X connect 11 0 0 0;
#X restore 130 166 pd select_sound;
#X obj 75 198 +~;
#X obj 74 229 outlet~;
#X connect 0 0 11 0;
#X connect 1 0 3 0;
#X connect 1 0 8 0;
#X connect 2 0 0 0;
#X connect 3 0 2 0;
#X connect 4 0 5 0;
#X connect 5 0 3 1;
#X connect 6 0 4 0;
#X connect 7 0 0 0;
#X connect 8 0 9 0;
#X connect 9 0 7 0;
#X connect 10 0 11 1;
#X connect 11 0 12 0;
#X restore 541 438 pd sound_stuff;
#X obj 263 404 r trackplay;
#X connect 1 0 2 0;
#X connect 2 0 1 0;
#X connect 5 0 30 0;
#X connect 6 0 9 0;
#X connect 6 0 14 0;
#X connect 8 0 5 0;
#X connect 9 0 8 0;
#X connect 10 0 11 0;
#X connect 11 0 9 1;
#X connect 12 0 10 0;
#X connect 13 0 5 0;
#X connect 14 0 15 0;
#X connect 15 0 13 0;
#X connect 16 0 18 0;
#X connect 17 0 16 0;
#X connect 17 0 26 0;
#X connect 18 0 20 0;
#X connect 19 0 18 1;
#X connect 20 0 21 0;
#X connect 21 0 22 0;
#X connect 22 0 27 0;
#X connect 23 0 22 0;
#X connect 24 0 22 0;
#X connect 25 0 22 0;
#X connect 26 0 21 0;
#X connect 28 0 26 2;
#X connect 29 0 30 1;
#X connect 30 0 7 0;
#X connect 30 0 7 1;
#X connect 31 0 22 0;
#X connect 32 0 33 0;
#X connect 33 0 16 1;
#X connect 39 0 38 0;
#X connect 39 1 35 0;
#X connect 39 2 36 0;
#X connect 39 3 37 0;
#X connect 47 0 19 0;
