#N canvas 749 195 566 387 10;
#X declare -lib mrpeach;
#X obj 20 59 cnv 15 220 70 empty empty empty 20 12 0 14 -195568 -66577
0;
#N canvas 0 22 454 304 gemwin 0;
#X obj 132 136 gemwin;
#X obj 67 89 outlet;
#X obj 67 10 inlet;
#X obj 67 41 route create;
#X msg 67 70 set destroy;
#X msg 182 68 set create;
#X msg 132 112 create \, 1;
#X msg 238 112 destroy;
#N canvas 87 154 247 160 Gem.init 0;
#X obj 59 46 loadbang;
#X msg 118 81 reset;
#X obj 118 113 outlet;
#X obj 59 65 t b b;
#X connect 0 0 3 0;
#X connect 1 0 2 0;
#X connect 3 1 1 0;
#X restore 289 80 pd Gem.init;
#X connect 2 0 3 0;
#X connect 3 0 4 0;
#X connect 3 0 6 0;
#X connect 3 1 5 0;
#X connect 3 1 7 0;
#X connect 4 0 1 0;
#X connect 5 0 1 0;
#X connect 6 0 0 0;
#X connect 7 0 0 0;
#X connect 8 0 0 0;
#X restore 25 103 pd gemwin;
#X msg 25 79 create;
#X text 21 59 Create window and render;
#X floatatom 303 273 5 0 0 2 x - -;
#X floatatom 360 274 5 0 0 2 y - -;
#N canvas 512 215 450 300 handpos 0;
#X obj 76 16 inlet;
#X obj 127 19 inlet;
#X obj 21 19 gemhead;
#X obj 22 174 square;
#X obj 22 101 translateXYZ;
#X floatatom 28 54 5 0 0 2 x - -;
#X floatatom 63 54 5 0 0 2 y - -;
#X obj 28 76 / 10;
#X obj 63 75 / 10;
#X obj 115 130 loadbang;
#X msg 115 155 0.2;
#X obj 22 132 color 0 1 2;
#X connect 0 0 5 0;
#X connect 1 0 6 0;
#X connect 2 0 4 0;
#X connect 4 0 11 0;
#X connect 5 0 7 0;
#X connect 6 0 8 0;
#X connect 7 0 4 1;
#X connect 8 0 4 2;
#X connect 9 0 10 0;
#X connect 10 0 3 1;
#X connect 11 0 3 0;
#X restore 303 306 pd handpos;
#N canvas 609 193 450 336 statetester 0;
#X obj 27 32 tgl 15 0 empty empty empty 17 7 0 10 -262144 -1 -1 0 1
;
#X msg 27 63 \; Astate \$1;
#X obj 108 21 tgl 15 0 empty empty empty 17 7 0 10 -262144 -1 -1 0
1;
#X obj 187 19 tgl 15 0 empty empty empty 17 7 0 10 -262144 -1 -1 0
1;
#X obj 270 19 tgl 15 0 empty empty empty 17 7 0 10 -262144 -1 -1 0
1;
#X obj 33 96 tgl 15 0 empty empty empty 17 7 0 10 -262144 -1 -1 0 1
;
#X obj 125 94 tgl 15 0 empty empty empty 17 7 0 10 -262144 -1 -1 0
1;
#X obj 205 92 tgl 15 0 empty empty empty 17 7 0 10 -262144 -1 -1 0
1;
#X obj 294 86 tgl 15 0 empty empty empty 17 7 0 10 -262144 -1 -1 0
1;
#X obj 40 171 tgl 15 0 empty empty empty 17 7 0 10 -262144 -1 -1 0
1;
#X obj 134 168 tgl 15 0 empty empty empty 17 7 0 10 -262144 -1 -1 0
1;
#X obj 223 164 tgl 15 0 empty empty empty 17 7 0 10 -262144 -1 -1 0
1;
#X obj 311 164 tgl 15 0 empty empty empty 17 7 0 10 -262144 -1 -1 0
1;
#X obj 41 239 tgl 15 0 empty empty empty 17 7 0 10 -262144 -1 -1 0
1;
#X obj 138 240 tgl 15 0 empty empty empty 17 7 0 10 -262144 -1 -1 0
1;
#X obj 228 237 tgl 15 0 empty empty empty 17 7 0 10 -262144 -1 -1 0
1;
#X obj 316 238 tgl 15 0 empty empty empty 17 7 0 10 -262144 -1 -1 0
1;
#X msg 108 52 \; Bstate \$1;
#X msg 187 50 \; Cstate \$1;
#X msg 270 50 \; Dstate \$1;
#X msg 33 127 \; Estate \$1;
#X msg 125 125 \; Fstate \$1;
#X msg 205 123 \; Gstate \$1;
#X msg 293 117 \; Hstate \$1;
#X msg 40 202 \; Istate \$1;
#X msg 134 199 \; Jstate \$1;
#X msg 223 195 \; Kstate \$1;
#X msg 311 195 \; Lstate \$1;
#X msg 40 270 \; Mstate \$1;
#X msg 138 271 \; Nstate \$1;
#X msg 228 268 \; Ostate \$1;
#X msg 316 267 \; Pstate \$1;
#X connect 0 0 1 0;
#X connect 2 0 17 0;
#X connect 3 0 18 0;
#X connect 4 0 19 0;
#X connect 5 0 20 0;
#X connect 6 0 21 0;
#X connect 7 0 22 0;
#X connect 8 0 23 0;
#X connect 9 0 24 0;
#X connect 10 0 25 0;
#X connect 11 0 26 0;
#X connect 12 0 27 0;
#X connect 13 0 28 0;
#X connect 14 0 29 0;
#X connect 15 0 30 0;
#X connect 16 0 31 0;
#X restore 150 109 pd statetester;
#N canvas 219 236 450 326 cute_title 0;
#X obj 154 66 gemhead;
#X floatatom 160 104 5 0 0 2 x - -;
#X floatatom 195 104 5 0 0 2 y - -;
#X floatatom 232 103 5 0 0 2 z - -;
#X obj 154 158 translateXYZ;
#X floatatom 270 104 5 0 0 2 size - -;
#X msg 161 180 font vera.ttf;
#X msg 251 180 text;
#X obj 270 124 / 10;
#X obj 160 126 / 10;
#X obj 195 125 / 10;
#X obj 232 125 / 10;
#X obj 240 40 loadbang;
#X msg 240 61 39;
#X msg 271 61 -4;
#X obj 154 202 text3d Hi \, Stephanie!;
#X msg 303 58 60;
#X connect 0 0 4 0;
#X connect 1 0 9 0;
#X connect 2 0 10 0;
#X connect 3 0 11 0;
#X connect 4 0 15 0;
#X connect 5 0 8 0;
#X connect 6 0 15 0;
#X connect 7 0 15 0;
#X connect 8 0 15 1;
#X connect 9 0 4 1;
#X connect 10 0 4 2;
#X connect 11 0 4 3;
#X connect 12 0 13 0;
#X connect 12 0 14 0;
#X connect 12 0 16 0;
#X connect 13 0 2 0;
#X connect 14 0 3 0;
#X connect 16 0 5 0;
#X restore 155 86 pd cute_title;
#N canvas 356 21 920 642 zone_figure-outer 0;
#X floatatom 55 84 5 0 0 0 - - -;
#X obj 55 63 div 16;
#X floatatom 108 84 5 0 0 0 - - -;
#X obj 108 63 div 16;
#X obj 108 41 - 8;
#X obj 55 19 inlet;
#X obj 108 19 inlet;
#X obj 55 104 s x;
#X obj 109 103 s y;
#X obj 215 31 r x;
#X obj 258 31 r y;
#X obj 211 51 cnv 15 80 120 empty empty A 50 65 0 20 -233017 -66577
0;
#X obj 215 57 == -2;
#X obj 215 108 &&;
#X obj 258 58 == 0;
#X obj 233 83 t b f;
#X msg 215 135 \; Astate \$1;
#X obj 312 50 cnv 15 80 120 empty empty B 50 65 0 20 -233017 -66577
0;
#X obj 316 108 &&;
#X obj 359 58 == 0;
#X obj 334 83 t b f;
#X obj 316 57 == -1;
#X obj 316 30 r x;
#X obj 359 30 r y;
#X obj 409 48 cnv 15 80 120 empty empty C 50 65 0 20 -233017 -66577
0;
#X obj 413 106 &&;
#X obj 456 56 == 0;
#X obj 431 81 t b f;
#X obj 413 28 r x;
#X obj 456 28 r y;
#X msg 316 136 \; Bstate \$1;
#X obj 413 55 == 0;
#X msg 413 135 \; Cstate \$1;
#X obj 503 44 cnv 15 80 120 empty empty D 50 65 0 20 -233017 -66577
0;
#X obj 507 102 &&;
#X obj 550 52 == 0;
#X obj 525 77 t b f;
#X obj 507 24 r x;
#X obj 550 24 r y;
#X obj 507 51 == 1;
#X obj 215 181 r x;
#X obj 258 181 r y;
#X obj 211 201 cnv 15 80 120 empty empty E 50 65 0 20 -233017 -66577
0;
#X obj 215 207 == -2;
#X obj 215 258 &&;
#X obj 233 233 t b f;
#X msg 215 284 \; Estate \$1;
#X obj 258 208 == -1;
#X obj 315 181 r x;
#X obj 358 181 r y;
#X obj 311 201 cnv 15 80 120 empty empty F 50 65 0 20 -233017 -66577
0;
#X obj 315 258 &&;
#X obj 333 233 t b f;
#X obj 358 208 == -1;
#X msg 314 284 \; Fstate \$1;
#X obj 315 207 == -1;
#X obj 419 180 r x;
#X obj 462 180 r y;
#X obj 415 200 cnv 15 80 120 empty empty G 50 65 0 20 -233017 -66577
0;
#X obj 419 257 &&;
#X obj 437 232 t b f;
#X obj 462 207 == -1;
#X obj 419 206 == 0;
#X msg 418 283 \; Gstate \$1;
#X obj 513 180 r x;
#X obj 556 180 r y;
#X obj 509 200 cnv 15 80 120 empty empty G 50 65 0 20 -233017 -66577
0;
#X obj 513 257 &&;
#X obj 531 232 t b f;
#X obj 556 207 == -1;
#X obj 513 206 == 1;
#X obj 216 331 r x;
#X obj 259 331 r y;
#X obj 212 351 cnv 15 80 120 empty empty E 50 65 0 20 -233017 -66577
0;
#X obj 216 357 == -2;
#X obj 216 408 &&;
#X obj 234 383 t b f;
#X obj 316 331 r x;
#X obj 359 331 r y;
#X obj 312 351 cnv 15 80 120 empty empty F 50 65 0 20 -233017 -66577
0;
#X obj 316 408 &&;
#X obj 334 383 t b f;
#X obj 316 357 == -1;
#X obj 420 330 r x;
#X obj 463 330 r y;
#X obj 416 350 cnv 15 80 120 empty empty G 50 65 0 20 -233017 -66577
0;
#X obj 420 407 &&;
#X obj 438 382 t b f;
#X obj 420 356 == 0;
#X obj 514 330 r x;
#X obj 557 330 r y;
#X obj 510 350 cnv 15 80 120 empty empty G 50 65 0 20 -233017 -66577
0;
#X obj 514 407 &&;
#X obj 532 382 t b f;
#X obj 514 356 == 1;
#X obj 259 358 == -2;
#X msg 216 434 \; Istate \$1;
#X obj 359 358 == -2;
#X obj 463 357 == -2;
#X obj 557 357 == -2;
#X msg 315 434 \; Jstate \$1;
#X msg 419 433 \; Kstate \$1;
#X msg 513 433 \; Lstate \$1;
#X obj 216 478 r x;
#X obj 259 478 r y;
#X obj 212 498 cnv 15 80 120 empty empty E 50 65 0 20 -233017 -66577
0;
#X obj 216 504 == -2;
#X obj 216 555 &&;
#X obj 234 530 t b f;
#X obj 316 478 r x;
#X obj 359 478 r y;
#X obj 312 498 cnv 15 80 120 empty empty F 50 65 0 20 -233017 -66577
0;
#X obj 316 555 &&;
#X obj 334 530 t b f;
#X obj 316 504 == -1;
#X obj 420 477 r x;
#X obj 463 477 r y;
#X obj 416 497 cnv 15 80 120 empty empty G 50 65 0 20 -233017 -66577
0;
#X obj 420 554 &&;
#X obj 438 529 t b f;
#X obj 420 503 == 0;
#X obj 514 477 r x;
#X obj 557 477 r y;
#X obj 510 497 cnv 15 80 120 empty empty G 50 65 0 20 -233017 -66577
0;
#X obj 514 554 &&;
#X obj 532 529 t b f;
#X obj 514 503 == 1;
#X obj 259 505 == -3;
#X obj 359 505 == -3;
#X obj 463 504 == -3;
#X obj 557 504 == -3;
#X msg 215 581 \; Mstate \$1;
#X msg 315 581 \; Nstate \$1;
#X msg 419 580 \; Ostate \$1;
#X msg 513 580 \; Pstate \$1;
#X msg 507 131 \; Dstate \$1;
#X msg 512 283 \; Hstate \$1;
#X connect 0 0 7 0;
#X connect 1 0 0 0;
#X connect 2 0 8 0;
#X connect 3 0 2 0;
#X connect 4 0 3 0;
#X connect 5 0 1 0;
#X connect 6 0 4 0;
#X connect 9 0 12 0;
#X connect 10 0 14 0;
#X connect 12 0 13 0;
#X connect 13 0 16 0;
#X connect 13 0 16 0;
#X connect 14 0 15 0;
#X connect 15 0 13 0;
#X connect 15 1 13 1;
#X connect 18 0 30 0;
#X connect 18 0 30 0;
#X connect 19 0 20 0;
#X connect 20 0 18 0;
#X connect 20 1 18 1;
#X connect 21 0 18 0;
#X connect 22 0 21 0;
#X connect 23 0 19 0;
#X connect 25 0 32 0;
#X connect 25 0 32 0;
#X connect 26 0 27 0;
#X connect 27 0 25 0;
#X connect 27 1 25 1;
#X connect 28 0 31 0;
#X connect 29 0 26 0;
#X connect 31 0 25 0;
#X connect 34 0 135 0;
#X connect 34 0 135 0;
#X connect 35 0 36 0;
#X connect 36 0 34 0;
#X connect 36 1 34 1;
#X connect 37 0 39 0;
#X connect 38 0 35 0;
#X connect 39 0 34 0;
#X connect 40 0 43 0;
#X connect 41 0 47 0;
#X connect 43 0 44 0;
#X connect 44 0 46 0;
#X connect 44 0 46 0;
#X connect 45 0 44 0;
#X connect 45 1 44 1;
#X connect 47 0 45 0;
#X connect 48 0 55 0;
#X connect 49 0 53 0;
#X connect 51 0 54 0;
#X connect 51 0 54 0;
#X connect 52 0 51 0;
#X connect 52 1 51 1;
#X connect 53 0 52 0;
#X connect 55 0 51 0;
#X connect 56 0 62 0;
#X connect 57 0 61 0;
#X connect 59 0 63 0;
#X connect 59 0 63 0;
#X connect 60 0 59 0;
#X connect 60 1 59 1;
#X connect 61 0 60 0;
#X connect 62 0 59 0;
#X connect 64 0 70 0;
#X connect 65 0 69 0;
#X connect 67 0 136 0;
#X connect 67 0 136 0;
#X connect 68 0 67 0;
#X connect 68 1 67 1;
#X connect 69 0 68 0;
#X connect 70 0 67 0;
#X connect 71 0 74 0;
#X connect 72 0 95 0;
#X connect 74 0 75 0;
#X connect 75 0 96 0;
#X connect 75 0 96 0;
#X connect 76 0 75 0;
#X connect 76 1 75 1;
#X connect 77 0 82 0;
#X connect 78 0 97 0;
#X connect 80 0 100 0;
#X connect 80 0 100 0;
#X connect 81 0 80 0;
#X connect 81 1 80 1;
#X connect 82 0 80 0;
#X connect 83 0 88 0;
#X connect 84 0 98 0;
#X connect 86 0 101 0;
#X connect 86 0 101 0;
#X connect 87 0 86 0;
#X connect 87 1 86 1;
#X connect 88 0 86 0;
#X connect 89 0 94 0;
#X connect 90 0 99 0;
#X connect 92 0 102 0;
#X connect 92 0 102 0;
#X connect 93 0 92 0;
#X connect 93 1 92 1;
#X connect 94 0 92 0;
#X connect 95 0 76 0;
#X connect 97 0 81 0;
#X connect 98 0 87 0;
#X connect 99 0 93 0;
#X connect 103 0 106 0;
#X connect 104 0 127 0;
#X connect 106 0 107 0;
#X connect 107 0 131 0;
#X connect 107 0 131 0;
#X connect 108 0 107 0;
#X connect 108 1 107 1;
#X connect 109 0 114 0;
#X connect 110 0 128 0;
#X connect 112 0 132 0;
#X connect 112 0 132 0;
#X connect 113 0 112 0;
#X connect 113 1 112 1;
#X connect 114 0 112 0;
#X connect 115 0 120 0;
#X connect 116 0 129 0;
#X connect 118 0 133 0;
#X connect 118 0 133 0;
#X connect 119 0 118 0;
#X connect 119 1 118 1;
#X connect 120 0 118 0;
#X connect 121 0 126 0;
#X connect 122 0 130 0;
#X connect 124 0 134 0;
#X connect 124 0 134 0;
#X connect 125 0 124 0;
#X connect 125 1 124 1;
#X connect 126 0 124 0;
#X connect 127 0 108 0;
#X connect 128 0 113 0;
#X connect 129 0 119 0;
#X connect 130 0 125 0;
#X restore 378 308 pd zone_figure-outer;
#N canvas 0 0 1366 686 grid4x4 0;
#X obj 110 9 loadbang;
#X obj 113 98 loadbang;
#X msg 113 130 -10;
#X obj 205 8 loadbang;
#X msg 205 40 10;
#X obj 207 96 loadbang;
#X msg 207 128 10;
#X msg 167 41 -10;
#X msg 262 41 -10;
#X msg 264 129 -10;
#X msg 170 132 -10;
#X obj 14 9 loadbang;
#X obj 20 97 loadbang;
#X obj 306 12 loadbang;
#X obj 308 104 loadbang;
#N canvas 255 130 450 300 squareA 0;
#X obj 83 15 inlet;
#X obj 134 15 inlet;
#X obj 189 15 inlet;
#X obj 28 15 gemhead;
#X obj 28 264 square;
#X obj 28 117 translateXYZ;
#X floatatom 51 52 5 0 0 2 x - -;
#X floatatom 86 52 5 0 0 2 y - -;
#X floatatom 123 52 5 0 0 2 z - -;
#X obj 51 80 / 10;
#X obj 86 80 / 10;
#X obj 123 80 / 10;
#X obj 274 273 text3d;
#X msg 274 247 text A;
#X msg 327 248 10;
#X obj 274 223 loadbang;
#X obj 231 225 color;
#X obj 203 75 r Astate;
#N canvas 749 139 450 300 statechanger 0;
#X obj 146 126 loadbang;
#X msg 299 168 draw fill;
#X msg 369 170 0 1 2;
#X msg 243 156 1 1 1;
#X obj 275 64 sel 0;
#X msg 146 155 draw line \; width 10 \;;
#X obj 216 123 t b b;
#X obj 299 115 t b b;
#X obj 275 29 inlet;
#X obj 146 237 outlet;
#X obj 306 236 outlet;
#X connect 0 0 5 0;
#X connect 1 0 9 0;
#X connect 2 0 10 0;
#X connect 3 0 10 0;
#X connect 4 0 6 0;
#X connect 4 1 7 0;
#X connect 5 0 9 0;
#X connect 6 0 5 0;
#X connect 6 1 3 0;
#X connect 7 0 1 0;
#X connect 7 1 2 0;
#X connect 8 0 4 0;
#X restore 203 120 pd statechanger;
#X connect 0 0 6 0;
#X connect 1 0 7 0;
#X connect 2 0 8 0;
#X connect 3 0 5 0;
#X connect 5 0 4 0;
#X connect 5 0 16 0;
#X connect 6 0 9 0;
#X connect 7 0 10 0;
#X connect 8 0 11 0;
#X connect 9 0 5 1;
#X connect 10 0 5 2;
#X connect 11 0 5 3;
#X connect 13 0 12 0;
#X connect 14 0 12 1;
#X connect 15 0 14 0;
#X connect 15 0 13 0;
#X connect 16 0 12 0;
#X connect 17 0 18 0;
#X connect 18 0 4 0;
#X connect 18 1 16 1;
#X restore 14 69 pd squareA;
#X msg 71 41 -10;
#X msg 363 45 -10;
#X msg 365 137 -10;
#X msg 77 131 -10;
#X msg 14 41 -30;
#X msg 306 44 30;
#X msg 308 136 30;
#X msg 20 129 -30;
#X obj 116 184 loadbang;
#X msg 116 216 -10;
#X obj 119 273 loadbang;
#X msg 119 305 -10;
#X obj 211 183 loadbang;
#X msg 211 215 10;
#X obj 213 271 loadbang;
#X msg 213 303 10;
#X msg 173 216 -10;
#X msg 268 216 -10;
#X msg 270 304 -10;
#X msg 176 307 -10;
#X obj 20 184 loadbang;
#X obj 26 272 loadbang;
#X obj 312 187 loadbang;
#X obj 314 279 loadbang;
#X msg 77 216 -10;
#X msg 369 220 -10;
#X msg 371 312 -10;
#X msg 83 306 -10;
#X msg 20 216 -30;
#X msg 312 219 30;
#X msg 314 311 30;
#X msg 26 304 -30;
#N canvas 129 65 450 300 squareB 0;
#X obj 82 90 inlet;
#X obj 133 93 inlet;
#X obj 188 91 inlet;
#X obj 27 93 gemhead;
#X obj 28 233 square;
#X obj 28 175 translateXYZ;
#X floatatom 34 128 5 0 0 2 x - -;
#X floatatom 69 128 5 0 0 2 y - -;
#X floatatom 106 127 5 0 0 2 z - -;
#X obj 34 150 / 10;
#X obj 69 149 / 10;
#X obj 106 149 / 10;
#X obj 113 176 loadbang;
#X obj 205 241 text3d;
#X msg 256 210 10;
#X obj 205 159 loadbang;
#X msg 205 209 text B;
#X obj 285 69 r Bstate;
#N canvas 749 139 450 300 statechanger 0;
#X obj 146 126 loadbang;
#X msg 299 168 draw fill;
#X msg 369 170 0 1 2;
#X msg 243 156 1 1 1;
#X obj 275 64 sel 0;
#X msg 146 155 draw line \; width 10 \;;
#X obj 216 123 t b b;
#X obj 299 115 t b b;
#X obj 275 29 inlet;
#X obj 146 237 outlet;
#X obj 306 236 outlet;
#X connect 0 0 5 0;
#X connect 1 0 9 0;
#X connect 2 0 10 0;
#X connect 3 0 10 0;
#X connect 4 0 6 0;
#X connect 4 1 7 0;
#X connect 5 0 9 0;
#X connect 6 0 5 0;
#X connect 6 1 3 0;
#X connect 7 0 1 0;
#X connect 7 1 2 0;
#X connect 8 0 4 0;
#X restore 285 98 pd statechanger;
#X obj 297 213 color;
#X connect 0 0 6 0;
#X connect 1 0 7 0;
#X connect 2 0 8 0;
#X connect 3 0 5 0;
#X connect 5 0 4 0;
#X connect 5 0 19 0;
#X connect 6 0 9 0;
#X connect 7 0 10 0;
#X connect 8 0 11 0;
#X connect 9 0 5 1;
#X connect 10 0 5 2;
#X connect 11 0 5 3;
#X connect 14 0 13 1;
#X connect 15 0 14 0;
#X connect 15 0 16 0;
#X connect 16 0 13 0;
#X connect 17 0 18 0;
#X connect 18 0 4 0;
#X connect 18 1 19 1;
#X connect 19 0 13 0;
#X restore 110 69 pd squareB;
#N canvas 637 189 450 300 squareC 0;
#X obj 82 90 inlet;
#X obj 133 93 inlet;
#X obj 188 91 inlet;
#X obj 27 93 gemhead;
#X obj 28 233 square;
#X obj 28 175 translateXYZ;
#X floatatom 34 128 5 0 0 2 x - -;
#X floatatom 69 128 5 0 0 2 y - -;
#X floatatom 106 127 5 0 0 2 z - -;
#X obj 34 150 / 10;
#X obj 69 149 / 10;
#X obj 106 149 / 10;
#X obj 215 251 text3d;
#X msg 265 219 10;
#X obj 215 184 loadbang;
#X msg 215 219 text C;
#N canvas 749 139 450 300 statechanger 0;
#X obj 146 126 loadbang;
#X msg 299 168 draw fill;
#X msg 369 170 0 1 2;
#X msg 243 156 1 1 1;
#X obj 275 64 sel 0;
#X msg 146 155 draw line \; width 10 \;;
#X obj 216 123 t b b;
#X obj 299 115 t b b;
#X obj 275 29 inlet;
#X obj 146 237 outlet;
#X obj 306 236 outlet;
#X connect 0 0 5 0;
#X connect 1 0 9 0;
#X connect 2 0 10 0;
#X connect 3 0 10 0;
#X connect 4 0 6 0;
#X connect 4 1 7 0;
#X connect 5 0 9 0;
#X connect 6 0 5 0;
#X connect 6 1 3 0;
#X connect 7 0 1 0;
#X connect 7 1 2 0;
#X connect 8 0 4 0;
#X restore 295 108 pd statechanger;
#X obj 307 223 color;
#X obj 295 79 r Cstate;
#X connect 0 0 6 0;
#X connect 1 0 7 0;
#X connect 2 0 8 0;
#X connect 3 0 5 0;
#X connect 5 0 4 0;
#X connect 5 0 17 0;
#X connect 6 0 9 0;
#X connect 7 0 10 0;
#X connect 8 0 11 0;
#X connect 9 0 5 1;
#X connect 10 0 5 2;
#X connect 11 0 5 3;
#X connect 13 0 12 1;
#X connect 14 0 13 0;
#X connect 14 0 15 0;
#X connect 15 0 12 0;
#X connect 16 0 4 0;
#X connect 16 1 17 1;
#X connect 17 0 12 0;
#X connect 18 0 16 0;
#X restore 205 68 pd squareC;
#N canvas 238 308 450 300 squareD 0;
#X obj 82 90 inlet;
#X obj 133 93 inlet;
#X obj 188 91 inlet;
#X obj 27 93 gemhead;
#X obj 28 233 square;
#X obj 28 175 translateXYZ;
#X floatatom 34 128 5 0 0 2 x - -;
#X floatatom 69 128 5 0 0 2 y - -;
#X floatatom 106 127 5 0 0 2 z - -;
#X obj 34 150 / 10;
#X obj 69 149 / 10;
#X obj 106 149 / 10;
#X obj 215 251 text3d;
#X msg 265 219 10;
#X obj 215 184 loadbang;
#X msg 215 219 text D;
#N canvas 749 139 450 300 statechanger 0;
#X obj 146 126 loadbang;
#X msg 299 168 draw fill;
#X msg 369 170 0 1 2;
#X msg 243 156 1 1 1;
#X obj 275 64 sel 0;
#X msg 146 155 draw line \; width 10 \;;
#X obj 216 123 t b b;
#X obj 299 115 t b b;
#X obj 275 29 inlet;
#X obj 146 237 outlet;
#X obj 306 236 outlet;
#X connect 0 0 5 0;
#X connect 1 0 9 0;
#X connect 2 0 10 0;
#X connect 3 0 10 0;
#X connect 4 0 6 0;
#X connect 4 1 7 0;
#X connect 5 0 9 0;
#X connect 6 0 5 0;
#X connect 6 1 3 0;
#X connect 7 0 1 0;
#X connect 7 1 2 0;
#X connect 8 0 4 0;
#X restore 305 118 pd statechanger;
#X obj 317 233 color;
#X obj 305 89 r Dstate;
#X connect 0 0 6 0;
#X connect 1 0 7 0;
#X connect 2 0 8 0;
#X connect 3 0 5 0;
#X connect 5 0 4 0;
#X connect 5 0 17 0;
#X connect 6 0 9 0;
#X connect 7 0 10 0;
#X connect 8 0 11 0;
#X connect 9 0 5 1;
#X connect 10 0 5 2;
#X connect 11 0 5 3;
#X connect 13 0 12 1;
#X connect 14 0 13 0;
#X connect 14 0 15 0;
#X connect 15 0 12 0;
#X connect 16 0 4 0;
#X connect 16 1 17 1;
#X connect 17 0 12 0;
#X connect 18 0 16 0;
#X restore 306 72 pd squareD;
#N canvas 238 308 450 300 squareE 0;
#X obj 82 90 inlet;
#X obj 133 93 inlet;
#X obj 188 91 inlet;
#X obj 27 93 gemhead;
#X obj 28 233 square;
#X obj 28 175 translateXYZ;
#X floatatom 34 128 5 0 0 2 x - -;
#X floatatom 69 128 5 0 0 2 y - -;
#X floatatom 106 127 5 0 0 2 z - -;
#X obj 34 150 / 10;
#X obj 69 149 / 10;
#X obj 106 149 / 10;
#X obj 224 261 text3d;
#X msg 275 230 10;
#X obj 224 175 loadbang;
#X msg 224 229 text E;
#N canvas 749 139 450 300 statechanger 0;
#X obj 146 126 loadbang;
#X msg 299 168 draw fill;
#X msg 369 170 0 1 2;
#X msg 243 156 1 1 1;
#X obj 275 64 sel 0;
#X msg 146 155 draw line \; width 10 \;;
#X obj 216 123 t b b;
#X obj 299 115 t b b;
#X obj 275 29 inlet;
#X obj 146 237 outlet;
#X obj 306 236 outlet;
#X connect 0 0 5 0;
#X connect 1 0 9 0;
#X connect 2 0 10 0;
#X connect 3 0 10 0;
#X connect 4 0 6 0;
#X connect 4 1 7 0;
#X connect 5 0 9 0;
#X connect 6 0 5 0;
#X connect 6 1 3 0;
#X connect 7 0 1 0;
#X connect 7 1 2 0;
#X connect 8 0 4 0;
#X restore 315 128 pd statechanger;
#X obj 318 230 color;
#X obj 315 99 r Estate;
#X connect 0 0 6 0;
#X connect 1 0 7 0;
#X connect 2 0 8 0;
#X connect 3 0 5 0;
#X connect 5 0 4 0;
#X connect 5 0 17 0;
#X connect 6 0 9 0;
#X connect 7 0 10 0;
#X connect 8 0 11 0;
#X connect 9 0 5 1;
#X connect 10 0 5 2;
#X connect 11 0 5 3;
#X connect 13 0 12 1;
#X connect 14 0 13 0;
#X connect 14 0 15 0;
#X connect 15 0 12 0;
#X connect 16 0 4 0;
#X connect 16 1 17 1;
#X connect 17 0 12 0;
#X connect 18 0 16 0;
#X restore 20 157 pd squareE;
#N canvas 238 308 450 300 squareF 0;
#X obj 82 90 inlet;
#X obj 133 93 inlet;
#X obj 188 91 inlet;
#X obj 27 93 gemhead;
#X obj 28 233 square;
#X obj 28 175 translateXYZ;
#X floatatom 34 128 5 0 0 2 x - -;
#X floatatom 69 128 5 0 0 2 y - -;
#X floatatom 106 127 5 0 0 2 z - -;
#X obj 34 150 / 10;
#X obj 69 149 / 10;
#X obj 106 149 / 10;
#X obj 224 261 text3d;
#X msg 275 230 10;
#X obj 224 175 loadbang;
#X msg 224 229 text F;
#N canvas 749 139 450 300 statechanger 0;
#X obj 146 126 loadbang;
#X msg 299 168 draw fill;
#X msg 369 170 0 1 2;
#X msg 243 156 1 1 1;
#X obj 275 64 sel 0;
#X msg 146 155 draw line \; width 10 \;;
#X obj 216 123 t b b;
#X obj 299 115 t b b;
#X obj 275 29 inlet;
#X obj 146 237 outlet;
#X obj 306 236 outlet;
#X connect 0 0 5 0;
#X connect 1 0 9 0;
#X connect 2 0 10 0;
#X connect 3 0 10 0;
#X connect 4 0 6 0;
#X connect 4 1 7 0;
#X connect 5 0 9 0;
#X connect 6 0 5 0;
#X connect 6 1 3 0;
#X connect 7 0 1 0;
#X connect 7 1 2 0;
#X connect 8 0 4 0;
#X restore 325 139 pd statechanger;
#X obj 313 231 color;
#X obj 325 110 r Fstate;
#X connect 0 0 6 0;
#X connect 1 0 7 0;
#X connect 2 0 8 0;
#X connect 3 0 5 0;
#X connect 5 0 4 0;
#X connect 5 0 17 0;
#X connect 6 0 9 0;
#X connect 7 0 10 0;
#X connect 8 0 11 0;
#X connect 9 0 5 1;
#X connect 10 0 5 2;
#X connect 11 0 5 3;
#X connect 13 0 12 1;
#X connect 14 0 13 0;
#X connect 14 0 15 0;
#X connect 15 0 12 0;
#X connect 16 0 4 0;
#X connect 16 1 17 1;
#X connect 17 0 12 0;
#X connect 18 0 16 0;
#X restore 113 158 pd squareF;
#N canvas 238 308 450 300 squareG 0;
#X obj 82 90 inlet;
#X obj 133 93 inlet;
#X obj 188 91 inlet;
#X obj 27 93 gemhead;
#X obj 28 233 square;
#X obj 28 175 translateXYZ;
#X floatatom 34 128 5 0 0 2 x - -;
#X floatatom 69 128 5 0 0 2 y - -;
#X floatatom 106 127 5 0 0 2 z - -;
#X obj 34 150 / 10;
#X obj 69 149 / 10;
#X obj 106 149 / 10;
#X obj 235 271 text3d;
#X msg 286 240 10;
#X obj 235 194 loadbang;
#X msg 235 239 text G;
#N canvas 749 139 450 300 statechanger 0;
#X obj 146 126 loadbang;
#X msg 299 168 draw fill;
#X msg 369 170 0 1 2;
#X msg 243 156 1 1 1;
#X obj 275 64 sel 0;
#X msg 146 155 draw line \; width 10 \;;
#X obj 216 123 t b b;
#X obj 299 115 t b b;
#X obj 275 29 inlet;
#X obj 146 237 outlet;
#X obj 306 236 outlet;
#X connect 0 0 5 0;
#X connect 1 0 9 0;
#X connect 2 0 10 0;
#X connect 3 0 10 0;
#X connect 4 0 6 0;
#X connect 4 1 7 0;
#X connect 5 0 9 0;
#X connect 6 0 5 0;
#X connect 6 1 3 0;
#X connect 7 0 1 0;
#X connect 7 1 2 0;
#X connect 8 0 4 0;
#X restore 335 148 pd statechanger;
#X obj 324 239 color;
#X obj 336 119 r Gstate;
#X connect 0 0 6 0;
#X connect 1 0 7 0;
#X connect 2 0 8 0;
#X connect 3 0 5 0;
#X connect 5 0 4 0;
#X connect 5 0 17 0;
#X connect 6 0 9 0;
#X connect 7 0 10 0;
#X connect 8 0 11 0;
#X connect 9 0 5 1;
#X connect 10 0 5 2;
#X connect 11 0 5 3;
#X connect 13 0 12 1;
#X connect 14 0 13 0;
#X connect 14 0 15 0;
#X connect 15 0 12 0;
#X connect 16 0 4 0;
#X connect 16 1 17 1;
#X connect 17 0 12 0;
#X connect 18 0 16 0;
#X restore 207 156 pd squareG;
#N canvas 674 267 450 300 squareH 0;
#X obj 82 90 inlet;
#X obj 133 93 inlet;
#X obj 188 91 inlet;
#X obj 27 93 gemhead;
#X obj 28 233 square;
#X obj 28 175 translateXYZ;
#X floatatom 34 128 5 0 0 2 x - -;
#X floatatom 69 128 5 0 0 2 y - -;
#X floatatom 106 127 5 0 0 2 z - -;
#X obj 34 150 / 10;
#X obj 69 149 / 10;
#X obj 106 149 / 10;
#X obj 235 271 text3d;
#X msg 286 240 10;
#X obj 235 194 loadbang;
#X msg 235 239 text H;
#N canvas 749 139 450 300 statechanger 0;
#X obj 146 126 loadbang;
#X msg 299 168 draw fill;
#X msg 369 170 0 1 2;
#X msg 243 156 1 1 1;
#X obj 275 64 sel 0;
#X msg 146 155 draw line \; width 10 \;;
#X obj 216 123 t b b;
#X obj 299 115 t b b;
#X obj 275 29 inlet;
#X obj 146 237 outlet;
#X obj 306 236 outlet;
#X connect 0 0 5 0;
#X connect 1 0 9 0;
#X connect 2 0 10 0;
#X connect 3 0 10 0;
#X connect 4 0 6 0;
#X connect 4 1 7 0;
#X connect 5 0 9 0;
#X connect 6 0 5 0;
#X connect 6 1 3 0;
#X connect 7 0 1 0;
#X connect 7 1 2 0;
#X connect 8 0 4 0;
#X restore 331 112 pd statechanger;
#X obj 322 241 color;
#X obj 331 83 r Hstate;
#X connect 0 0 6 0;
#X connect 1 0 7 0;
#X connect 2 0 8 0;
#X connect 3 0 5 0;
#X connect 5 0 4 0;
#X connect 5 0 17 0;
#X connect 6 0 9 0;
#X connect 7 0 10 0;
#X connect 8 0 11 0;
#X connect 9 0 5 1;
#X connect 10 0 5 2;
#X connect 11 0 5 3;
#X connect 13 0 12 1;
#X connect 14 0 13 0;
#X connect 14 0 15 0;
#X connect 15 0 12 0;
#X connect 16 0 4 0;
#X connect 16 1 17 1;
#X connect 17 0 12 0;
#X connect 18 0 16 0;
#X restore 308 163 pd squareH;
#N canvas 238 308 450 300 squareI 0;
#X obj 82 90 inlet;
#X obj 133 93 inlet;
#X obj 188 91 inlet;
#X obj 27 93 gemhead;
#X obj 28 233 square;
#X obj 28 175 translateXYZ;
#X floatatom 34 128 5 0 0 2 x - -;
#X floatatom 69 128 5 0 0 2 y - -;
#X floatatom 106 127 5 0 0 2 z - -;
#X obj 34 150 / 10;
#X obj 69 149 / 10;
#X obj 106 149 / 10;
#X obj 205 241 text3d;
#X msg 256 210 10;
#X obj 205 159 loadbang;
#X msg 205 209 text I;
#N canvas 749 139 450 300 statechanger 0;
#X obj 146 126 loadbang;
#X msg 299 168 draw fill;
#X msg 369 170 0 1 2;
#X msg 243 156 1 1 1;
#X obj 275 64 sel 0;
#X msg 146 155 draw line \; width 10 \;;
#X obj 216 123 t b b;
#X obj 299 115 t b b;
#X obj 275 29 inlet;
#X obj 146 237 outlet;
#X obj 306 236 outlet;
#X connect 0 0 5 0;
#X connect 1 0 9 0;
#X connect 2 0 10 0;
#X connect 3 0 10 0;
#X connect 4 0 6 0;
#X connect 4 1 7 0;
#X connect 5 0 9 0;
#X connect 6 0 5 0;
#X connect 6 1 3 0;
#X connect 7 0 1 0;
#X connect 7 1 2 0;
#X connect 8 0 4 0;
#X restore 284 93 pd statechanger;
#X obj 296 208 color;
#X obj 284 64 r Istate;
#X connect 0 0 6 0;
#X connect 1 0 7 0;
#X connect 2 0 8 0;
#X connect 3 0 5 0;
#X connect 5 0 4 0;
#X connect 5 0 17 0;
#X connect 6 0 9 0;
#X connect 7 0 10 0;
#X connect 8 0 11 0;
#X connect 9 0 5 1;
#X connect 10 0 5 2;
#X connect 11 0 5 3;
#X connect 13 0 12 1;
#X connect 14 0 13 0;
#X connect 14 0 15 0;
#X connect 15 0 12 0;
#X connect 16 0 4 0;
#X connect 16 1 17 1;
#X connect 17 0 12 0;
#X connect 18 0 16 0;
#X restore 20 244 pd squareI;
#N canvas 238 308 450 300 squareJ 0;
#X obj 82 90 inlet;
#X obj 133 93 inlet;
#X obj 188 91 inlet;
#X obj 27 93 gemhead;
#X obj 28 233 square;
#X obj 28 175 translateXYZ;
#X floatatom 34 128 5 0 0 2 x - -;
#X floatatom 69 128 5 0 0 2 y - -;
#X floatatom 106 127 5 0 0 2 z - -;
#X obj 34 150 / 10;
#X obj 69 149 / 10;
#X obj 106 149 / 10;
#X obj 205 241 text3d;
#X msg 256 210 10;
#X obj 205 159 loadbang;
#X msg 205 209 text J;
#N canvas 749 139 450 300 statechanger 0;
#X obj 146 126 loadbang;
#X msg 299 168 draw fill;
#X msg 369 170 0 1 2;
#X msg 243 156 1 1 1;
#X obj 275 64 sel 0;
#X msg 146 155 draw line \; width 10 \;;
#X obj 216 123 t b b;
#X obj 299 115 t b b;
#X obj 275 29 inlet;
#X obj 146 237 outlet;
#X obj 306 236 outlet;
#X connect 0 0 5 0;
#X connect 1 0 9 0;
#X connect 2 0 10 0;
#X connect 3 0 10 0;
#X connect 4 0 6 0;
#X connect 4 1 7 0;
#X connect 5 0 9 0;
#X connect 6 0 5 0;
#X connect 6 1 3 0;
#X connect 7 0 1 0;
#X connect 7 1 2 0;
#X connect 8 0 4 0;
#X restore 288 90 pd statechanger;
#X obj 300 205 color;
#X obj 288 61 r Jstate;
#X connect 0 0 6 0;
#X connect 1 0 7 0;
#X connect 2 0 8 0;
#X connect 3 0 5 0;
#X connect 5 0 4 0;
#X connect 5 0 17 0;
#X connect 6 0 9 0;
#X connect 7 0 10 0;
#X connect 8 0 11 0;
#X connect 9 0 5 1;
#X connect 10 0 5 2;
#X connect 11 0 5 3;
#X connect 13 0 12 1;
#X connect 14 0 13 0;
#X connect 14 0 15 0;
#X connect 15 0 12 0;
#X connect 16 0 4 0;
#X connect 16 1 17 1;
#X connect 17 0 12 0;
#X connect 18 0 16 0;
#X restore 116 244 pd squareJ;
#N canvas 474 314 450 300 squareK 0;
#X obj 82 90 inlet;
#X obj 133 93 inlet;
#X obj 188 91 inlet;
#X obj 27 93 gemhead;
#X obj 28 233 square;
#X obj 28 175 translateXYZ;
#X floatatom 34 128 5 0 0 2 x - -;
#X floatatom 69 128 5 0 0 2 y - -;
#X floatatom 106 127 5 0 0 2 z - -;
#X obj 34 150 / 10;
#X obj 69 149 / 10;
#X obj 106 149 / 10;
#X obj 215 251 text3d;
#X msg 265 219 10;
#X obj 215 184 loadbang;
#X msg 215 219 text K;
#N canvas 749 139 450 300 statechanger 0;
#X obj 146 126 loadbang;
#X msg 299 168 draw fill;
#X msg 369 170 0 1 2;
#X msg 243 156 1 1 1;
#X obj 275 64 sel 0;
#X msg 146 155 draw line \; width 10 \;;
#X obj 216 123 t b b;
#X obj 299 115 t b b;
#X obj 275 29 inlet;
#X obj 146 237 outlet;
#X obj 306 236 outlet;
#X connect 0 0 5 0;
#X connect 1 0 9 0;
#X connect 2 0 10 0;
#X connect 3 0 10 0;
#X connect 4 0 6 0;
#X connect 4 1 7 0;
#X connect 5 0 9 0;
#X connect 6 0 5 0;
#X connect 6 1 3 0;
#X connect 7 0 1 0;
#X connect 7 1 2 0;
#X connect 8 0 4 0;
#X restore 292 101 pd statechanger;
#X obj 304 216 color;
#X obj 292 72 r Kstate;
#X connect 0 0 6 0;
#X connect 1 0 7 0;
#X connect 2 0 8 0;
#X connect 3 0 5 0;
#X connect 5 0 4 0;
#X connect 5 0 17 0;
#X connect 6 0 9 0;
#X connect 7 0 10 0;
#X connect 8 0 11 0;
#X connect 9 0 5 1;
#X connect 10 0 5 2;
#X connect 11 0 5 3;
#X connect 13 0 12 1;
#X connect 14 0 13 0;
#X connect 14 0 15 0;
#X connect 15 0 12 0;
#X connect 16 0 4 0;
#X connect 16 1 17 1;
#X connect 17 0 12 0;
#X connect 18 0 16 0;
#X restore 211 243 pd squareK;
#N canvas 238 308 450 300 squareL 0;
#X obj 82 90 inlet;
#X obj 133 93 inlet;
#X obj 188 91 inlet;
#X obj 27 93 gemhead;
#X obj 28 233 square;
#X obj 28 175 translateXYZ;
#X floatatom 34 128 5 0 0 2 x - -;
#X floatatom 69 128 5 0 0 2 y - -;
#X floatatom 106 127 5 0 0 2 z - -;
#X obj 34 150 / 10;
#X obj 69 149 / 10;
#X obj 106 149 / 10;
#X obj 215 251 text3d;
#X msg 265 219 10;
#X obj 215 184 loadbang;
#X msg 215 219 text L;
#N canvas 749 139 450 300 statechanger 0;
#X obj 146 126 loadbang;
#X msg 299 168 draw fill;
#X msg 369 170 0 1 2;
#X msg 243 156 1 1 1;
#X obj 275 64 sel 0;
#X msg 146 155 draw line \; width 10 \;;
#X obj 216 123 t b b;
#X obj 299 115 t b b;
#X obj 275 29 inlet;
#X obj 146 237 outlet;
#X obj 306 236 outlet;
#X connect 0 0 5 0;
#X connect 1 0 9 0;
#X connect 2 0 10 0;
#X connect 3 0 10 0;
#X connect 4 0 6 0;
#X connect 4 1 7 0;
#X connect 5 0 9 0;
#X connect 6 0 5 0;
#X connect 6 1 3 0;
#X connect 7 0 1 0;
#X connect 7 1 2 0;
#X connect 8 0 4 0;
#X restore 288 104 pd statechanger;
#X obj 300 219 color;
#X obj 288 74 r Lstate;
#X connect 0 0 6 0;
#X connect 1 0 7 0;
#X connect 2 0 8 0;
#X connect 3 0 5 0;
#X connect 5 0 4 0;
#X connect 5 0 17 0;
#X connect 6 0 9 0;
#X connect 7 0 10 0;
#X connect 8 0 11 0;
#X connect 9 0 5 1;
#X connect 10 0 5 2;
#X connect 11 0 5 3;
#X connect 13 0 12 1;
#X connect 14 0 13 0;
#X connect 14 0 15 0;
#X connect 15 0 12 0;
#X connect 16 0 4 0;
#X connect 16 1 17 1;
#X connect 17 0 12 0;
#X connect 18 0 16 0;
#X restore 312 247 pd squareL;
#N canvas 238 308 450 300 squareM 0;
#X obj 82 90 inlet;
#X obj 133 93 inlet;
#X obj 188 91 inlet;
#X obj 27 93 gemhead;
#X obj 28 233 square;
#X obj 28 175 translateXYZ;
#X floatatom 34 128 5 0 0 2 x - -;
#X floatatom 69 128 5 0 0 2 y - -;
#X floatatom 106 127 5 0 0 2 z - -;
#X obj 34 150 / 10;
#X obj 69 149 / 10;
#X obj 106 149 / 10;
#X obj 224 261 text3d;
#X msg 275 230 10;
#X obj 224 175 loadbang;
#X msg 224 229 text M;
#N canvas 749 139 450 300 statechanger 0;
#X obj 146 126 loadbang;
#X msg 299 168 draw fill;
#X msg 369 170 0 1 2;
#X msg 243 156 1 1 1;
#X obj 275 64 sel 0;
#X msg 146 155 draw line \; width 10 \;;
#X obj 216 123 t b b;
#X obj 299 115 t b b;
#X obj 275 29 inlet;
#X obj 146 237 outlet;
#X obj 306 236 outlet;
#X connect 0 0 5 0;
#X connect 1 0 9 0;
#X connect 2 0 10 0;
#X connect 3 0 10 0;
#X connect 4 0 6 0;
#X connect 4 1 7 0;
#X connect 5 0 9 0;
#X connect 6 0 5 0;
#X connect 6 1 3 0;
#X connect 7 0 1 0;
#X connect 7 1 2 0;
#X connect 8 0 4 0;
#X restore 300 116 pd statechanger;
#X obj 312 231 color;
#X obj 300 88 r Mstate;
#X connect 0 0 6 0;
#X connect 1 0 7 0;
#X connect 2 0 8 0;
#X connect 3 0 5 0;
#X connect 5 0 4 0;
#X connect 5 0 17 0;
#X connect 6 0 9 0;
#X connect 7 0 10 0;
#X connect 8 0 11 0;
#X connect 9 0 5 1;
#X connect 10 0 5 2;
#X connect 11 0 5 3;
#X connect 13 0 12 1;
#X connect 14 0 13 0;
#X connect 14 0 15 0;
#X connect 15 0 12 0;
#X connect 16 0 4 0;
#X connect 16 1 17 1;
#X connect 17 0 12 0;
#X connect 18 0 16 0;
#X restore 26 332 pd squareM;
#N canvas 238 308 450 300 squareN 0;
#X obj 82 90 inlet;
#X obj 133 93 inlet;
#X obj 188 91 inlet;
#X obj 27 93 gemhead;
#X obj 28 233 square;
#X obj 28 175 translateXYZ;
#X floatatom 34 128 5 0 0 2 x - -;
#X floatatom 69 128 5 0 0 2 y - -;
#X floatatom 106 127 5 0 0 2 z - -;
#X obj 34 150 / 10;
#X obj 69 149 / 10;
#X obj 106 149 / 10;
#X obj 224 261 text3d;
#X msg 275 230 10;
#X obj 224 175 loadbang;
#X msg 224 228 text N;
#N canvas 749 139 450 300 statechanger 0;
#X obj 146 126 loadbang;
#X msg 299 168 draw fill;
#X msg 369 170 0 1 2;
#X msg 243 156 1 1 1;
#X obj 275 64 sel 0;
#X msg 146 155 draw line \; width 10 \;;
#X obj 216 123 t b b;
#X obj 299 115 t b b;
#X obj 275 29 inlet;
#X obj 146 237 outlet;
#X obj 306 236 outlet;
#X connect 0 0 5 0;
#X connect 1 0 9 0;
#X connect 2 0 10 0;
#X connect 3 0 10 0;
#X connect 4 0 6 0;
#X connect 4 1 7 0;
#X connect 5 0 9 0;
#X connect 6 0 5 0;
#X connect 6 1 3 0;
#X connect 7 0 1 0;
#X connect 7 1 2 0;
#X connect 8 0 4 0;
#X restore 304 114 pd statechanger;
#X obj 316 229 color;
#X obj 304 85 r Nstate;
#X connect 0 0 6 0;
#X connect 1 0 7 0;
#X connect 2 0 8 0;
#X connect 3 0 5 0;
#X connect 5 0 4 0;
#X connect 5 0 17 0;
#X connect 6 0 9 0;
#X connect 7 0 10 0;
#X connect 8 0 11 0;
#X connect 9 0 5 1;
#X connect 10 0 5 2;
#X connect 11 0 5 3;
#X connect 13 0 12 1;
#X connect 14 0 13 0;
#X connect 14 0 15 0;
#X connect 15 0 12 0;
#X connect 16 0 4 0;
#X connect 16 1 17 1;
#X connect 17 0 12 0;
#X connect 18 0 16 0;
#X restore 119 333 pd squareN;
#N canvas 238 308 450 300 squareO 0;
#X obj 82 90 inlet;
#X obj 133 93 inlet;
#X obj 188 91 inlet;
#X obj 27 93 gemhead;
#X obj 28 233 square;
#X obj 28 175 translateXYZ;
#X floatatom 34 128 5 0 0 2 x - -;
#X floatatom 69 128 5 0 0 2 y - -;
#X floatatom 106 127 5 0 0 2 z - -;
#X obj 34 150 / 10;
#X obj 69 149 / 10;
#X obj 106 149 / 10;
#X obj 235 271 text3d;
#X msg 286 240 10;
#X obj 235 194 loadbang;
#X msg 235 239 text O;
#N canvas 749 139 450 300 statechanger 0;
#X obj 146 126 loadbang;
#X msg 299 168 draw fill;
#X msg 369 170 0 1 2;
#X msg 243 156 1 1 1;
#X obj 275 64 sel 0;
#X msg 146 155 draw line \; width 10 \;;
#X obj 216 123 t b b;
#X obj 299 115 t b b;
#X obj 275 29 inlet;
#X obj 146 237 outlet;
#X obj 306 236 outlet;
#X connect 0 0 5 0;
#X connect 1 0 9 0;
#X connect 2 0 10 0;
#X connect 3 0 10 0;
#X connect 4 0 6 0;
#X connect 4 1 7 0;
#X connect 5 0 9 0;
#X connect 6 0 5 0;
#X connect 6 1 3 0;
#X connect 7 0 1 0;
#X connect 7 1 2 0;
#X connect 8 0 4 0;
#X restore 303 121 pd statechanger;
#X obj 315 236 color;
#X obj 303 92 r Ostate;
#X connect 0 0 6 0;
#X connect 1 0 7 0;
#X connect 2 0 8 0;
#X connect 3 0 5 0;
#X connect 5 0 4 0;
#X connect 5 0 17 0;
#X connect 6 0 9 0;
#X connect 7 0 10 0;
#X connect 8 0 11 0;
#X connect 9 0 5 1;
#X connect 10 0 5 2;
#X connect 11 0 5 3;
#X connect 13 0 12 1;
#X connect 14 0 13 0;
#X connect 14 0 15 0;
#X connect 15 0 12 0;
#X connect 16 0 4 0;
#X connect 16 1 17 1;
#X connect 17 0 12 0;
#X connect 18 0 16 0;
#X restore 213 331 pd squareO;
#N canvas 238 308 450 300 squareP 0;
#X obj 82 90 inlet;
#X obj 133 93 inlet;
#X obj 188 91 inlet;
#X obj 27 93 gemhead;
#X obj 28 233 square;
#X obj 28 175 translateXYZ;
#X floatatom 34 128 5 0 0 2 x - -;
#X floatatom 69 128 5 0 0 2 y - -;
#X floatatom 106 127 5 0 0 2 z - -;
#X obj 34 150 / 10;
#X obj 69 149 / 10;
#X obj 106 149 / 10;
#X obj 235 271 text3d;
#X msg 286 240 10;
#X obj 235 194 loadbang;
#X msg 235 240 text P;
#N canvas 749 139 450 300 statechanger 0;
#X obj 146 126 loadbang;
#X msg 299 168 draw fill;
#X msg 369 170 0 1 2;
#X msg 243 156 1 1 1;
#X obj 275 64 sel 0;
#X msg 146 155 draw line \; width 10 \;;
#X obj 216 123 t b b;
#X obj 299 115 t b b;
#X obj 275 29 inlet;
#X obj 146 237 outlet;
#X obj 306 236 outlet;
#X connect 0 0 5 0;
#X connect 1 0 9 0;
#X connect 2 0 10 0;
#X connect 3 0 10 0;
#X connect 4 0 6 0;
#X connect 4 1 7 0;
#X connect 5 0 9 0;
#X connect 6 0 5 0;
#X connect 6 1 3 0;
#X connect 7 0 1 0;
#X connect 7 1 2 0;
#X connect 8 0 4 0;
#X restore 313 131 pd statechanger;
#X obj 325 246 color;
#X obj 313 102 r Pstate;
#X connect 0 0 6 0;
#X connect 1 0 7 0;
#X connect 2 0 8 0;
#X connect 3 0 5 0;
#X connect 5 0 4 0;
#X connect 5 0 17 0;
#X connect 6 0 9 0;
#X connect 7 0 10 0;
#X connect 8 0 11 0;
#X connect 9 0 5 1;
#X connect 10 0 5 2;
#X connect 11 0 5 3;
#X connect 13 0 12 1;
#X connect 14 0 13 0;
#X connect 14 0 15 0;
#X connect 15 0 12 0;
#X connect 16 0 4 0;
#X connect 16 1 17 1;
#X connect 17 0 12 0;
#X connect 18 0 16 0;
#X restore 314 339 pd squareP;
#X msg 42 42 20;
#X msg 48 130 0;
#X msg 48 217 -20;
#X msg 54 305 -40;
#X msg 147 306 -40;
#X msg 241 303 -40;
#X msg 342 312 -40;
#X msg 340 220 -20;
#X msg 239 216 -20;
#X msg 144 217 -20;
#X msg 141 131 0;
#X msg 235 129 0;
#X msg 336 137 0;
#X msg 110 41 -10;
#X msg 138 42 20;
#X msg 233 41 20;
#X msg 334 45 20;
#X connect 0 0 76 0;
#X connect 0 0 77 0;
#X connect 0 0 7 0;
#X connect 1 0 2 0;
#X connect 1 0 73 0;
#X connect 1 0 10 0;
#X connect 2 0 52 0;
#X connect 3 0 4 0;
#X connect 3 0 78 0;
#X connect 3 0 8 0;
#X connect 4 0 49 0;
#X connect 5 0 6 0;
#X connect 5 0 74 0;
#X connect 5 0 9 0;
#X connect 6 0 53 0;
#X connect 7 0 48 2;
#X connect 8 0 49 2;
#X connect 9 0 53 2;
#X connect 10 0 52 2;
#X connect 11 0 20 0;
#X connect 11 0 63 0;
#X connect 11 0 16 0;
#X connect 12 0 23 0;
#X connect 12 0 64 0;
#X connect 12 0 19 0;
#X connect 13 0 21 0;
#X connect 13 0 79 0;
#X connect 13 0 17 0;
#X connect 14 0 22 0;
#X connect 14 0 75 0;
#X connect 14 0 18 0;
#X connect 16 0 15 2;
#X connect 17 0 50 2;
#X connect 18 0 54 2;
#X connect 19 0 51 2;
#X connect 20 0 15 0;
#X connect 21 0 50 0;
#X connect 22 0 54 0;
#X connect 23 0 51 0;
#X connect 24 0 25 0;
#X connect 24 0 72 0;
#X connect 24 0 32 0;
#X connect 25 0 56 0;
#X connect 26 0 27 0;
#X connect 26 0 67 0;
#X connect 26 0 35 0;
#X connect 27 0 60 0;
#X connect 28 0 29 0;
#X connect 28 0 71 0;
#X connect 28 0 33 0;
#X connect 29 0 57 0;
#X connect 30 0 31 0;
#X connect 30 0 68 0;
#X connect 30 0 34 0;
#X connect 31 0 61 0;
#X connect 32 0 56 2;
#X connect 33 0 57 2;
#X connect 34 0 61 2;
#X connect 35 0 60 2;
#X connect 36 0 44 0;
#X connect 36 0 65 0;
#X connect 36 0 40 0;
#X connect 37 0 47 0;
#X connect 37 0 66 0;
#X connect 37 0 43 0;
#X connect 38 0 45 0;
#X connect 38 0 70 0;
#X connect 38 0 41 0;
#X connect 39 0 46 0;
#X connect 39 0 69 0;
#X connect 39 0 42 0;
#X connect 40 0 55 2;
#X connect 41 0 58 2;
#X connect 42 0 62 2;
#X connect 43 0 59 2;
#X connect 44 0 55 0;
#X connect 45 0 58 0;
#X connect 46 0 62 0;
#X connect 47 0 59 0;
#X connect 63 0 15 1;
#X connect 64 0 51 1;
#X connect 65 0 55 1;
#X connect 66 0 59 1;
#X connect 67 0 60 1;
#X connect 68 0 61 1;
#X connect 69 0 62 1;
#X connect 70 0 58 1;
#X connect 71 0 57 1;
#X connect 72 0 56 1;
#X connect 73 0 52 1;
#X connect 74 0 53 1;
#X connect 75 0 54 1;
#X connect 76 0 48 0;
#X connect 77 0 48 1;
#X connect 78 0 49 1;
#X connect 79 0 50 1;
#X restore 173 62 pd grid4x4;
#X obj 252 80 udpreceive 7110;
#X obj 252 56 import mrpeach;
#X obj 252 34 bng 15 250 50 0 empty empty empty 17 7 0 10 -262144 -1
-1;
#X obj 252 102 unpackOSC;
#X obj 252 131 routeOSC /hand0;
#X obj 252 151 unpack s f f f f f;
#X floatatom 253 185 5 0 0 2 Fingers - -;
#X floatatom 303 185 5 0 0 2 X - -;
#X floatatom 344 185 5 0 0 2 Z - -;
#X floatatom 384 185 5 0 0 2 Y - -;
#X obj 303 214 - 0.5;
#X obj 303 236 * 100;
#X obj 384 213 * 100;
#N canvas 157 31 1146 670 tracklist 0;
#X obj 55 471 s trackplay;
#X msg 55 373 A.aiff;
#X msg 112 373 B.aiff;
#X msg 168 373 C.aiff;
#X msg 224 373 D.aiff;
#X msg 280 373 E.aiff;
#X msg 335 373 F.aiff;
#X msg 389 373 G.aiff;
#X msg 443 373 H.aiff;
#X msg 499 373 I.aiff;
#X msg 553 373 J.aiff;
#X msg 607 373 K.aiff;
#X msg 662 373 L.aiff;
#X msg 716 373 M.aiff;
#X msg 771 373 N.aiff;
#X msg 826 373 O.aiff;
#X msg 880 373 P.aiff;
#X msg 938 373 positive.aiff;
#X obj 55 301 r Astate;
#X obj 55 347 sel 1;
#X obj 55 323 change;
#X obj 112 347 sel 1;
#X obj 112 323 change;
#X obj 112 301 r Bstate;
#X obj 168 347 sel 1;
#X obj 168 323 change;
#X obj 168 301 r Cstate;
#X obj 224 347 sel 1;
#X obj 224 323 change;
#X obj 224 301 r Dstate;
#X obj 280 347 sel 1;
#X obj 280 323 change;
#X obj 280 301 r Estate;
#X obj 335 347 sel 1;
#X obj 335 323 change;
#X obj 335 301 r Fstate;
#X obj 389 347 sel 1;
#X obj 389 323 change;
#X obj 389 301 r Gstate;
#X obj 443 347 sel 1;
#X obj 443 323 change;
#X obj 443 301 r Hstate;
#X obj 499 347 sel 1;
#X obj 499 323 change;
#X obj 499 301 r Istate;
#X obj 553 347 sel 1;
#X obj 553 323 change;
#X obj 553 301 r Jstate;
#X obj 607 347 sel 1;
#X obj 607 323 change;
#X obj 607 301 r Kstate;
#X obj 662 347 sel 1;
#X obj 662 323 change;
#X obj 662 301 r Lstate;
#X obj 716 347 sel 1;
#X obj 716 323 change;
#X obj 771 347 sel 1;
#X obj 771 323 change;
#X obj 716 301 r Mstate;
#X obj 771 301 r Nstate;
#X obj 826 347 sel 1;
#X obj 826 323 change;
#X obj 826 301 r Ostate;
#X obj 880 347 sel 1;
#X obj 880 323 change;
#X obj 880 301 r Pstate;
#X obj 938 347 sel 1;
#X obj 938 323 change;
#X obj 938 301 r Click;
#X connect 1 0 0 0;
#X connect 2 0 0 0;
#X connect 3 0 0 0;
#X connect 4 0 0 0;
#X connect 5 0 0 0;
#X connect 6 0 0 0;
#X connect 7 0 0 0;
#X connect 8 0 0 0;
#X connect 9 0 0 0;
#X connect 10 0 0 0;
#X connect 11 0 0 0;
#X connect 12 0 0 0;
#X connect 13 0 0 0;
#X connect 14 0 0 0;
#X connect 15 0 0 0;
#X connect 16 0 0 0;
#X connect 17 0 0 0;
#X connect 18 0 20 0;
#X connect 19 0 1 0;
#X connect 20 0 19 0;
#X connect 21 0 2 0;
#X connect 22 0 21 0;
#X connect 23 0 22 0;
#X connect 24 0 3 0;
#X connect 25 0 24 0;
#X connect 26 0 25 0;
#X connect 27 0 4 0;
#X connect 28 0 27 0;
#X connect 29 0 28 0;
#X connect 30 0 5 0;
#X connect 31 0 30 0;
#X connect 32 0 31 0;
#X connect 33 0 6 0;
#X connect 34 0 33 0;
#X connect 35 0 34 0;
#X connect 36 0 7 0;
#X connect 37 0 36 0;
#X connect 38 0 37 0;
#X connect 39 0 8 0;
#X connect 40 0 39 0;
#X connect 41 0 40 0;
#X connect 42 0 9 0;
#X connect 43 0 42 0;
#X connect 44 0 43 0;
#X connect 45 0 10 0;
#X connect 46 0 45 0;
#X connect 47 0 46 0;
#X connect 48 0 11 0;
#X connect 49 0 48 0;
#X connect 50 0 49 0;
#X connect 51 0 12 0;
#X connect 52 0 51 0;
#X connect 53 0 52 0;
#X connect 54 0 13 0;
#X connect 55 0 54 0;
#X connect 56 0 14 0;
#X connect 57 0 56 0;
#X connect 58 0 55 0;
#X connect 59 0 57 0;
#X connect 60 0 15 0;
#X connect 61 0 60 0;
#X connect 62 0 61 0;
#X connect 63 0 16 0;
#X connect 64 0 63 0;
#X connect 65 0 64 0;
#X connect 66 0 17 0;
#X connect 67 0 66 0;
#X connect 68 0 67 0;
#X restore 47 169 pd tracklist;
#X obj 51 291 readsf~;
#X obj 51 198 r trackplay;
#X obj 50 323 output~;
#X msg 51 266 open \$2/\$1;
#X obj 51 243 pack s s;
#X msg 131 196 sounds;
#X obj 131 220 symbol;
#X obj 131 170 loadbang;
#X msg 2 246 del 20;
#X msg 2 267 start;
#X obj 2 226 t b;
#X obj 253 211 change;
#X msg 221 289 \; Click bang;
#X obj 253 232 sel 1;
#X connect 1 0 2 0;
#X connect 2 0 1 0;
#X connect 4 0 6 0;
#X connect 4 0 9 0;
#X connect 5 0 6 1;
#X connect 5 0 9 1;
#X connect 11 0 14 0;
#X connect 13 0 12 0;
#X connect 14 0 15 0;
#X connect 15 0 16 0;
#X connect 16 2 17 0;
#X connect 16 3 18 0;
#X connect 16 4 19 0;
#X connect 16 5 20 0;
#X connect 17 0 36 0;
#X connect 18 0 21 0;
#X connect 20 0 23 0;
#X connect 21 0 22 0;
#X connect 22 0 4 0;
#X connect 23 0 5 0;
#X connect 25 0 27 0;
#X connect 25 1 27 1;
#X connect 26 0 29 0;
#X connect 26 0 35 0;
#X connect 28 0 25 0;
#X connect 29 0 28 0;
#X connect 30 0 31 0;
#X connect 31 0 29 1;
#X connect 32 0 30 0;
#X connect 33 0 34 0;
#X connect 34 0 25 0;
#X connect 35 0 33 0;
#X connect 36 0 38 0;
#X connect 38 0 37 0;
